<?xml version="1.0" standalone="no"?>
 <!DOCTYPE svg PUBLIC "-//W3C//DTD SVG 1.1//EN" 
 "http://www.w3.org/Graphics/SVG/1.1/DTD/svg11.dtd"> 
<svg
  xmlns:svg="http://www.w3.org/2000/svg"
  xmlns="http://www.w3.org/2000/svg"
  xmlns:xlink="http://www.w3.org/1999/xlink"
  version="1.1"
  width="297.002200mm" height="210.007200mm" viewBox="0.000000 0.000000 297.002200 210.007200">
<title>SVG Image created as MainBoard_Damashi-B_Cu.svg date 2025/08/26 14:37:23 </title>
  <desc>Image generated by PCBNEW </desc>
<g style="fill:#000000; fill-opacity:1.000000;stroke:#000000; stroke-opacity:1.000000;
stroke-linecap:round; stroke-linejoin:round;"
 transform="translate(0 0) scale(1 1)">
<path style="fill:#000000; fill-opacity:1.000000; stroke:none;fill-rule:evenodd;"
d="M 132.020000,111.250000
132.020000,113.250000
130.020000,113.250000
130.020000,111.250000
Z" /> 
</g>
<g style="fill:#000000; fill-opacity:1.000000; stroke:none;">
<circle cx="131.020000" cy="114.790000" r="1.000000" /> 
</g>
<g style="fill:#000000; fill-opacity:1.000000; stroke:none;">
<circle cx="128.480000" cy="112.250000" r="1.000000" /> 
</g>
<g style="fill:#000000; fill-opacity:1.000000; stroke:none;">
<circle cx="128.480000" cy="114.790000" r="1.000000" /> 
</g>
<g style="fill:#000000; fill-opacity:1.000000; stroke:none;">
<circle cx="125.940000" cy="112.250000" r="1.000000" /> 
</g>
<g style="fill:#000000; fill-opacity:1.000000; stroke:none;">
<circle cx="125.940000" cy="114.790000" r="1.000000" /> 
</g>
<g style="fill:#000000; fill-opacity:1.000000; stroke:none;">
<circle cx="123.400000" cy="112.250000" r="1.000000" /> 
</g>
<g style="fill:#000000; fill-opacity:1.000000; stroke:none;">
<circle cx="123.400000" cy="114.790000" r="1.000000" /> 
</g>
<g style="fill:#000000; fill-opacity:1.000000; stroke:none;">
<circle cx="120.860000" cy="112.250000" r="1.000000" /> 
</g>
<g style="fill:#000000; fill-opacity:1.000000; stroke:none;">
<circle cx="120.860000" cy="114.790000" r="1.000000" /> 
<path style="fill:#000000; fill-opacity:1.000000; stroke:none;fill-rule:evenodd;"
d="M 95.311230,72.103591
95.311230,70.373591
97.341230,70.373591
97.341230,72.103591
Z" /> 
</g>
<g style="fill:none; 
stroke:#000000; stroke-width:1.730000; stroke-opacity:1; 
stroke-linecap:round; stroke-linejoin:round;">
<path d="M96.176230 73.778591
L96.476230 73.778591
" />
<path d="M96.176230 76.318591
L96.476230 76.318591
" />
</g>
<g style="fill:#000000; fill-opacity:1.000000; stroke:none;">
<circle cx="110.937500" cy="95.150000" r="1.000000" /> 
</g>
<g style="fill:#000000; fill-opacity:1.000000; stroke:none;">
<circle cx="110.937500" cy="102.750000" r="1.000000" /> 
</g>
<g style="fill:#000000; fill-opacity:1.000000; stroke:none;">
<circle cx="110.800000" cy="113.800000" r="1.625000" /> 
<path style="fill:#000000; fill-opacity:1.000000; stroke:none;fill-rule:evenodd;"
d="M 101.280000,109.500000
102.980000,109.500000
102.980000,111.200000
101.280000,111.200000
Z" /> 
</g>
<g style="fill:#000000; fill-opacity:1.000000; stroke:none;">
<circle cx="99.590000" cy="110.350000" r="0.850000" /> 
<path style="fill:#000000; fill-opacity:1.000000; stroke:none;fill-rule:evenodd;"
d="M 87.425000,95.625000
87.425000,97.325000
85.725000,97.325000
85.725000,95.625000
Z" /> 
<circle cx="86.575000" cy="93.935000" r="0.850000" /> 
<circle cx="86.575000" cy="91.395000" r="0.850000" /> 
<circle cx="86.575000" cy="88.855000" r="0.850000" /> 
<circle cx="86.575000" cy="86.315000" r="0.850000" /> 
<circle cx="119.780000" cy="81.500000" r="0.875000" /> 
</g>
<g style="fill:#000000; fill-opacity:1.000000; stroke:none;">
<circle cx="117.240000" cy="81.500000" r="0.875000" /> 
</g>
<g style="fill:#000000; fill-opacity:1.000000; stroke:none;">
<circle cx="114.700000" cy="81.500000" r="0.875000" /> 
</g>
<g style="fill:#000000; fill-opacity:1.000000; stroke:none;">
<circle cx="112.160000" cy="81.500000" r="0.875000" /> 
</g>
<g style="fill:#000000; fill-opacity:1.000000; stroke:none;">
<circle cx="109.620000" cy="81.500000" r="0.875000" /> 
</g>
<g style="fill:#000000; fill-opacity:1.000000; stroke:none;">
<circle cx="107.080000" cy="81.500000" r="0.875000" /> 
</g>
<g style="fill:#000000; fill-opacity:1.000000; stroke:none;">
<circle cx="104.540000" cy="81.500000" r="0.875000" /> 
</g>
<g style="fill:#000000; fill-opacity:1.000000; stroke:none;">
<circle cx="102.000000" cy="81.500000" r="0.875000" /> 
</g>
<g style="fill:#000000; fill-opacity:1.000000; stroke:none;">
<circle cx="99.460000" cy="81.500000" r="0.875000" /> 
</g>
<g style="fill:#000000; fill-opacity:1.000000; stroke:none;">
<circle cx="96.920000" cy="81.500000" r="0.875000" /> 
</g>
<g style="fill:#000000; fill-opacity:1.000000; stroke:none;">
<circle cx="94.380000" cy="81.500000" r="0.875000" /> 
</g>
<g style="fill:#000000; fill-opacity:1.000000; stroke:none;">
<circle cx="91.840000" cy="81.500000" r="0.875000" /> 
</g>
<g style="fill:#000000; fill-opacity:1.000000; stroke:none;">
<circle cx="89.300000" cy="81.500000" r="0.875000" /> 
</g>
<g style="fill:#000000; fill-opacity:1.000000; stroke:none;">
<circle cx="86.760000" cy="81.500000" r="0.875000" /> 
</g>
<g style="fill:#000000; fill-opacity:1.000000; stroke:none;">
<circle cx="84.220000" cy="81.500000" r="0.875000" /> 
</g>
<g style="fill:#000000; fill-opacity:1.000000; stroke:none;">
<circle cx="84.220000" cy="106.900000" r="0.875000" /> 
</g>
<g style="fill:#000000; fill-opacity:1.000000; stroke:none;">
<circle cx="86.760000" cy="106.900000" r="0.875000" /> 
</g>
<g style="fill:#000000; fill-opacity:1.000000; stroke:none;">
<circle cx="89.300000" cy="106.900000" r="0.875000" /> 
</g>
<g style="fill:#000000; fill-opacity:1.000000; stroke:none;">
<circle cx="91.840000" cy="106.900000" r="0.875000" /> 
</g>
<g style="fill:#000000; fill-opacity:1.000000; stroke:none;">
<circle cx="94.380000" cy="106.900000" r="0.875000" /> 
</g>
<g style="fill:#000000; fill-opacity:1.000000; stroke:none;">
<circle cx="96.920000" cy="106.900000" r="0.875000" /> 
</g>
<g style="fill:#000000; fill-opacity:1.000000; stroke:none;">
<circle cx="99.460000" cy="106.900000" r="0.875000" /> 
</g>
<g style="fill:#000000; fill-opacity:1.000000; stroke:none;">
<circle cx="102.000000" cy="106.900000" r="0.875000" /> 
</g>
<g style="fill:#000000; fill-opacity:1.000000; stroke:none;">
<circle cx="104.540000" cy="106.900000" r="0.875000" /> 
</g>
<g style="fill:#000000; fill-opacity:1.000000; stroke:none;">
<circle cx="107.080000" cy="106.900000" r="0.875000" /> 
</g>
<g style="fill:#000000; fill-opacity:1.000000; stroke:none;">
<circle cx="109.620000" cy="106.900000" r="0.875000" /> 
</g>
<g style="fill:#000000; fill-opacity:1.000000; stroke:none;">
<circle cx="112.160000" cy="106.900000" r="0.875000" /> 
</g>
<g style="fill:#000000; fill-opacity:1.000000; stroke:none;">
<circle cx="114.700000" cy="106.900000" r="0.875000" /> 
</g>
<g style="fill:#000000; fill-opacity:1.000000; stroke:none;">
<circle cx="117.240000" cy="106.900000" r="0.875000" /> 
</g>
<g style="fill:#000000; fill-opacity:1.000000; stroke:none;">
<circle cx="119.780000" cy="106.900000" r="0.875000" /> 
<path style="fill:#000000; fill-opacity:1.000000; stroke:none;fill-rule:evenodd;"
d="M 131.885000,80.550000
130.185000,80.550000
130.185000,78.850000
131.885000,78.850000
Z" /> 
</g>
<g style="fill:#000000; fill-opacity:1.000000; stroke:none;">
<circle cx="133.575000" cy="79.700000" r="0.850000" /> 
<path style="fill:#000000; fill-opacity:1.000000; stroke:none;fill-rule:evenodd;"
d="M 80.980000,115.795000
80.980000,113.795000
82.980000,113.795000
82.980000,115.795000
Z" /> 
<circle cx="81.980000" cy="112.255000" r="1.000000" /> 
</g>
<g style="fill:#000000; fill-opacity:1.000000; stroke:none;">
<circle cx="84.520000" cy="114.795000" r="1.000000" /> 
</g>
<g style="fill:#000000; fill-opacity:1.000000; stroke:none;">
<circle cx="84.520000" cy="112.255000" r="1.000000" /> 
</g>
<g style="fill:#000000; fill-opacity:1.000000; stroke:none;">
<circle cx="87.060000" cy="114.795000" r="1.000000" /> 
</g>
<g style="fill:#000000; fill-opacity:1.000000; stroke:none;">
<circle cx="87.060000" cy="112.255000" r="1.000000" /> 
</g>
<g style="fill:#000000; fill-opacity:1.000000; stroke:none;">
<circle cx="89.600000" cy="114.795000" r="1.000000" /> 
</g>
<g style="fill:#000000; fill-opacity:1.000000; stroke:none;">
<circle cx="89.600000" cy="112.255000" r="1.000000" /> 
</g>
<g style="fill:#000000; fill-opacity:1.000000; stroke:none;">
<circle cx="92.140000" cy="114.795000" r="1.000000" /> 
</g>
<g style="fill:#000000; fill-opacity:1.000000; stroke:none;">
<circle cx="92.140000" cy="112.255000" r="1.000000" /> 
</g>
<g style="fill:#000000; fill-opacity:1.000000; stroke:none;">
<circle cx="117.100000" cy="94.040000" r="0.850000" /> 
<path style="fill:#000000; fill-opacity:1.000000; stroke:none;fill-rule:evenodd;"
d="M 116.250000,92.350000
116.250000,90.650000
117.950000,90.650000
117.950000,92.350000
Z" /> 
<path style="fill:#000000; fill-opacity:1.000000; stroke:none;fill-rule:evenodd;"
d="M 109.740000,72.103591
109.740000,70.373591
111.770000,70.373591
111.770000,72.103591
Z" /> 
</g>
<g style="fill:none; 
stroke:#000000; stroke-width:1.730000; stroke-opacity:1; 
stroke-linecap:round; stroke-linejoin:round;">
<path d="M110.605000 73.778591
L110.905000 73.778591
" />
<path d="M110.605000 76.318591
L110.905000 76.318591
" />
<path style="fill:#000000; fill-opacity:1.000000; stroke:none;fill-rule:evenodd;"
d="M 102.485000,72.103591
102.485000,70.373591
104.515000,70.373591
104.515000,72.103591
Z" /> 
</g>
<g style="fill:none; 
stroke:#000000; stroke-width:1.730000; stroke-opacity:1; 
stroke-linecap:round; stroke-linejoin:round;">
<path d="M103.350000 73.778591
L103.650000 73.778591
" />
<path d="M103.350000 76.318591
L103.650000 76.318591
" />
<path style="fill:#000000; fill-opacity:1.000000; stroke:none;fill-rule:evenodd;"
d="M 123.860000,72.103591
123.860000,70.373591
125.890000,70.373591
125.890000,72.103591
Z" /> 
</g>
<g style="fill:none; 
stroke:#000000; stroke-width:1.730000; stroke-opacity:1; 
stroke-linecap:round; stroke-linejoin:round;">
<path d="M124.725000 73.778591
L125.025000 73.778591
" />
<path d="M124.725000 76.318591
L125.025000 76.318591
" />
</g>
<g style="fill:#000000; fill-opacity:1.000000; stroke:none;">
<circle cx="79.600000" cy="74.675000" r="1.625000" /> 
</g>
<g style="fill:#000000; fill-opacity:1.000000; stroke:none;">
<circle cx="125.550000" cy="83.550000" r="1.625000" /> 
<path style="fill:#000000; fill-opacity:1.000000; stroke:none;fill-rule:evenodd;"
d="M 116.860000,72.103591
116.860000,70.373591
118.890000,70.373591
118.890000,72.103591
Z" /> 
</g>
<g style="fill:none; 
stroke:#000000; stroke-width:1.730000; stroke-opacity:1; 
stroke-linecap:round; stroke-linejoin:round;">
<path d="M117.725000 73.778591
L118.025000 73.778591
" />
<path d="M117.725000 76.318591
L118.025000 76.318591
" />
<path style="fill:#000000; fill-opacity:1.000000; stroke:none;fill-rule:evenodd;"
d="M 90.893100,102.368300
90.893100,104.171700
89.292900,104.171700
89.292900,102.368300
Z" /> 
<path style="fill:#000000; fill-opacity:1.000000; stroke:none;fill-rule:evenodd;"
d="M 93.687100,102.368300
93.687100,104.171700
92.086900,104.171700
92.086900,102.368300
Z" /> 
<path style="fill:#000000; fill-opacity:1.000000; stroke:none;fill-rule:evenodd;"
d="M 90.883100,99.818300
90.883100,101.621700
89.282900,101.621700
89.282900,99.818300
Z" /> 
<path style="fill:#000000; fill-opacity:1.000000; stroke:none;fill-rule:evenodd;"
d="M 93.677100,99.818300
93.677100,101.621700
92.076900,101.621700
92.076900,99.818300
Z" /> 
<path style="fill:#000000; fill-opacity:1.000000; stroke:none;fill-rule:evenodd;"
d="M 101.098300,103.326900
102.901700,103.326900
102.901700,104.927100
101.098300,104.927100
Z" /> 
<path style="fill:#000000; fill-opacity:1.000000; stroke:none;fill-rule:evenodd;"
d="M 101.098300,100.532900
102.901700,100.532900
102.901700,102.133100
101.098300,102.133100
Z" /> 
<path style="fill:#000000; fill-opacity:1.000000; stroke:none;fill-rule:evenodd;"
d="M 106.533900,104.051700
106.533900,102.248300
108.134100,102.248300
108.134100,104.051700
Z" /> 
<path style="fill:#000000; fill-opacity:1.000000; stroke:none;fill-rule:evenodd;"
d="M 103.739900,104.051700
103.739900,102.248300
105.340100,102.248300
105.340100,104.051700
Z" /> 
<path style="fill:#000000; fill-opacity:1.000000; stroke:none;fill-rule:evenodd;"
d="M 106.596500,99.550000
106.607918,99.492597
106.640434,99.443934
106.689097,99.411418
106.746500,99.400000
107.921500,99.400000
107.978903,99.411418
108.027566,99.443934
108.060082,99.492597
108.071500,99.550000
108.071500,99.850000
108.060082,99.907403
108.027566,99.956066
107.978903,99.988582
107.921500,100.000000
106.746500,100.000000
106.689097,99.988582
106.640434,99.956066
106.607918,99.907403
106.596500,99.850000
Z" /> 
<path style="fill:#000000; fill-opacity:1.000000; stroke:none;fill-rule:evenodd;"
d="M 106.596500,97.650000
106.607918,97.592597
106.640434,97.543934
106.689097,97.511418
106.746500,97.500000
107.921500,97.500000
107.978903,97.511418
108.027566,97.543934
108.060082,97.592597
108.071500,97.650000
108.071500,97.950000
108.060082,98.007403
108.027566,98.056066
107.978903,98.088582
107.921500,98.100000
106.746500,98.100000
106.689097,98.088582
106.640434,98.056066
106.607918,98.007403
106.596500,97.950000
Z" /> 
<path style="fill:#000000; fill-opacity:1.000000; stroke:none;fill-rule:evenodd;"
d="M 108.471500,98.600000
108.482918,98.542597
108.515434,98.493934
108.564097,98.461418
108.621500,98.450000
109.796500,98.450000
109.853903,98.461418
109.902566,98.493934
109.935082,98.542597
109.946500,98.600000
109.946500,98.900000
109.935082,98.957403
109.902566,99.006066
109.853903,99.038582
109.796500,99.050000
108.621500,99.050000
108.564097,99.038582
108.515434,99.006066
108.482918,98.957403
108.471500,98.900000
Z" /> 
</g>
<g style="fill:none; 
stroke:#000000; stroke-width:1.500000; stroke-opacity:1; 
stroke-linecap:round; stroke-linejoin:round;">
<path d="M90.374000 117.949000
L124.000000 117.949000
" />
<path d="M89.600000 117.175000
L90.374000 117.949000
" />
<path d="M89.600000 114.795000
L89.600000 117.175000
" />
</g>
<g style="fill:none; 
stroke:#000000; stroke-width:1.000000; stroke-opacity:1; 
stroke-linecap:round; stroke-linejoin:round;">
<path d="M89.600000 111.350000
L89.600000 114.795000
" />
<path d="M88.750000 110.500000
L89.600000 111.350000
" />
<path d="M85.400000 110.500000
L88.750000 110.500000
" />
<path d="M84.520000 111.380000
L85.400000 110.500000
" />
<path d="M84.520000 112.260000
L84.520000 111.380000
" />
<path d="M96.326230 78.101230
L96.326230 76.318591
" />
<path d="M97.125000 78.900000
L96.326230 78.101230
" />
<path d="M102.000000 79.700000
L101.200000 78.900000
" />
<path d="M101.200000 78.900000
L97.125000 78.900000
" />
<path d="M102.000000 81.500000
L102.000000 79.700000
" />
<path d="M107.080000 77.570000
L108.331409 76.318591
" />
<path d="M107.080000 81.500000
L107.080000 77.570000
" />
<path d="M108.331409 76.318591
L110.755000 76.318591
" />
<path d="M124.875000 78.350000
L124.875000 76.318591
" />
<path d="M113.125000 79.200000
L124.025000 79.200000
" />
<path d="M124.025000 79.200000
L124.875000 78.350000
" />
<path d="M112.160000 80.165000
L113.125000 79.200000
" />
<path d="M112.160000 81.500000
L112.160000 80.165000
" />
<path d="M113.606409 76.318591
L117.875000 76.318591
" />
<path d="M109.620000 80.305000
L113.606409 76.318591
" />
<path d="M109.620000 81.500000
L109.620000 80.305000
" />
</g>
<g style="fill:none; 
stroke:#000000; stroke-width:1.500000; stroke-opacity:1; 
stroke-linecap:round; stroke-linejoin:round;">
<path d="M90.093000 100.730000
L90.083000 100.720000
" />
<path d="M90.093000 103.270000
L90.093000 100.730000
" />
<path d="M84.220000 105.160000
L84.220000 106.900000
" />
<path d="M86.110000 103.270000
L84.220000 105.160000
" />
<path d="M90.093000 103.270000
L86.110000 103.270000
" />
<path d="M128.000000 117.949000
L132.076000 117.949000
" />
<path d="M123.400000 112.250000
L123.400000 114.790000
" />
<path d="M128.480000 117.469000
L128.000000 117.949000
" />
<path d="M124.000000 117.949000
L128.000000 117.949000
" />
<path d="M87.561409 71.238591
L96.326230 71.238591
" />
<path d="M133.575000 116.450000
L133.575000 79.700000
" />
<path d="M123.400000 106.000000
L121.120000 103.720000
" />
<path d="M130.838591 71.238591
L96.326230 71.238591
" />
<path d="M113.550000 95.900000
L112.800000 95.150000
" />
<path d="M113.550000 102.450000
L113.550000 95.900000
" />
<path d="M112.800000 95.150000
L110.937500 95.150000
" />
<path d="M121.120000 103.720000
L114.820000 103.720000
" />
<path d="M114.820000 103.720000
L113.550000 102.450000
" />
<path d="M85.115000 86.315000
L86.575000 86.315000
" />
<path d="M84.220000 81.500000
L84.220000 74.580000
" />
<path d="M128.480000 114.790000
L128.480000 117.469000
" />
<path d="M123.400000 117.349000
L124.000000 117.949000
" />
<path d="M84.220000 81.500000
L84.220000 85.420000
" />
<path d="M133.575000 73.975000
L130.838591 71.238591
" />
<path d="M84.220000 74.580000
L87.561409 71.238591
" />
<path d="M123.400000 112.250000
L123.400000 106.000000
" />
<path d="M123.400000 114.790000
L123.400000 117.349000
" />
<path d="M133.575000 79.700000
L133.575000 73.975000
" />
<path d="M132.076000 117.949000
L133.575000 116.450000
" />
<path d="M84.220000 85.420000
L85.115000 86.315000
" />
<path d="M107.080000 109.120000
L107.080000 106.900000
" />
<path d="M103.940000 112.260000
L107.080000 109.120000
" />
<path d="M92.140000 112.260000
L103.940000 112.260000
" />
<path d="M104.600000 114.800000
L109.620000 109.780000
" />
<path d="M92.140000 114.800000
L104.600000 114.800000
" />
<path d="M109.620000 109.780000
L109.620000 106.900000
" />
</g>
<g style="fill:none; 
stroke:#000000; stroke-width:1.000000; stroke-opacity:1; 
stroke-linecap:round; stroke-linejoin:round;">
<path d="M104.540000 79.390000
L104.540000 81.500000
" />
<path d="M103.500000 78.350000
L104.540000 79.390000
" />
<path d="M103.500000 76.318591
L103.500000 78.350000
" />
</g>
<g style="fill:none; 
stroke:#000000; stroke-width:1.500000; stroke-opacity:1; 
stroke-linecap:round; stroke-linejoin:round;">
<path d="M117.240000 106.900000
L117.240000 113.640000
" />
<path d="M118.390000 114.790000
L120.860000 114.790000
" />
<path d="M117.240000 113.640000
L118.390000 114.790000
" />
</g>
<g style="fill:none; 
stroke:#000000; stroke-width:1.000000; stroke-opacity:1; 
stroke-linecap:round; stroke-linejoin:round;">
<path d="M96.920000 83.480000
L96.920000 81.500000
" />
<path d="M92.800000 84.200000
L96.200000 84.200000
" />
<path d="M86.575000 93.935000
L88.465000 93.935000
" />
<path d="M91.600000 90.800000
L91.600000 85.400000
" />
<path d="M96.200000 84.200000
L96.920000 83.480000
" />
<path d="M88.465000 93.935000
L91.600000 90.800000
" />
<path d="M91.600000 85.400000
L92.800000 84.200000
" />
</g>
<g style="fill:none; 
stroke:#000000; stroke-width:1.500000; stroke-opacity:1; 
stroke-linecap:round; stroke-linejoin:round;">
<path d="M120.860000 110.460000
L120.860000 112.250000
" />
<path d="M119.780000 106.900000
L119.780000 109.380000
" />
<path d="M119.780000 109.380000
L120.860000 110.460000
" />
</g>
<g style="fill:none; 
stroke:#000000; stroke-width:1.000000; stroke-opacity:1; 
stroke-linecap:round; stroke-linejoin:round;">
<path d="M89.300000 90.100000
L89.300000 81.500000
" />
<path d="M86.575000 91.395000
L88.005000 91.395000
" />
<path d="M88.005000 91.395000
L89.300000 90.100000
" />
</g>
<g style="fill:none; 
stroke:#000000; stroke-width:0.750000; stroke-opacity:1; 
stroke-linecap:round; stroke-linejoin:round;">
<path d="M110.937500 99.350000
L110.937500 102.750000
" />
<path d="M110.337500 98.750000
L110.937500 99.350000
" />
<path d="M109.275000 98.750000
L110.337500 98.750000
" />
</g>
<g style="fill:none; 
stroke:#000000; stroke-width:1.000000; stroke-opacity:1; 
stroke-linecap:round; stroke-linejoin:round;">
<path d="M102.000000 101.333000
L102.000000 93.900000
" />
<path d="M104.400000 91.500000
L117.100000 91.500000
" />
<path d="M102.000000 93.900000
L104.400000 91.500000
" />
<path d="M93.600000 87.200000
L93.600000 92.000000
" />
<path d="M93.600000 92.000000
L89.125000 96.475000
" />
<path d="M99.460000 84.340000
L98.000000 85.800000
" />
<path d="M99.460000 81.500000
L99.460000 84.340000
" />
<path d="M89.125000 96.475000
L86.575000 96.475000
" />
<path d="M98.000000 85.800000
L95.000000 85.800000
" />
<path d="M95.000000 85.800000
L93.600000 87.200000
" />
</g>
<g style="fill:none; 
stroke:#000000; stroke-width:0.750000; stroke-opacity:1; 
stroke-linecap:round; stroke-linejoin:round;">
<path d="M107.334000 103.150000
L107.334000 99.700000
" />
</g>
<g style="fill:none; 
stroke:#000000; stroke-width:1.000000; stroke-opacity:1; 
stroke-linecap:round; stroke-linejoin:round;">
<path d="M99.460000 102.360000
L99.460000 107.420000
" />
<path d="M92.907000 100.720000
L97.820000 100.720000
" />
<path d="M97.820000 100.720000
L99.460000 102.360000
" />
<path d="M92.897000 100.730000
L92.907000 100.720000
" />
<path d="M99.460000 107.420000
L102.130000 110.090000
" />
<path d="M102.130000 110.090000
L102.130000 110.350000
" />
<path d="M92.897000 103.270000
L95.590000 103.270000
" />
<path d="M96.920000 104.600000
L96.920000 109.760000
" />
<path d="M97.510000 110.350000
L99.590000 110.350000
" />
<path d="M96.920000 109.760000
L97.510000 110.350000
" />
<path d="M95.590000 103.270000
L96.920000 104.600000
" />
<path d="M102.000000 104.127000
L102.000000 106.900000
" />
<path d="M104.540000 103.150000
L104.540000 106.900000
" />
<path style="fill:#000000; fill-opacity:1.000000; stroke:none;fill-rule:evenodd;"
d="M 86.400911,69.719454
86.481693,69.773430
86.535669,69.854212
86.554623,69.949500
86.535669,70.044788
86.481695,70.125566
83.209917,73.397345
83.209916,73.397344
83.037347,73.569914
83.037346,73.569915
82.893895,73.767359
82.783094,73.984819
82.707678,74.216926
82.669500,74.457963
82.669500,80.815416
82.650546,80.910704
82.630015,80.960268
82.630014,80.960273
82.573168,81.172425
82.544500,81.390182
82.544500,81.609818
82.573168,81.827575
82.630014,82.039727
82.650546,82.089295
82.669500,82.184583
82.669500,85.542036
82.707678,85.783073
82.770201,85.975500
82.783096,86.015185
82.893894,86.232639
83.037345,86.430083
84.104917,87.497655
84.302361,87.641106
84.519815,87.751904
84.751924,87.827321
84.836703,87.840748
84.992963,87.865499
84.992970,87.865499
84.992973,87.865500
85.237027,87.865500
85.966379,87.865500
86.043323,87.877686
86.188507,87.924860
86.188510,87.924860
86.188512,87.924861
86.362135,87.952359
86.445103,87.965500
86.445107,87.965500
86.704893,87.965500
86.704897,87.965500
86.961493,87.924860
87.208572,87.844579
87.440051,87.726634
87.604144,87.607413
87.692371,87.566740
87.789451,87.562925
87.880601,87.596552
87.951945,87.662501
87.992620,87.750731
87.999500,87.808860
87.999500,89.458175
87.980546,89.553464
87.958926,89.585820
87.926570,89.634245
87.926569,89.634245
87.658992,89.901821
87.578211,89.955797
87.482923,89.974751
87.387634,89.955797
87.369879,89.947611
87.208577,89.865423
87.208567,89.865419
86.961493,89.785140
86.961487,89.785138
86.704908,89.744501
86.704899,89.744500
86.704897,89.744500
86.445103,89.744500
86.445100,89.744500
86.445091,89.744501
86.188512,89.785138
86.188506,89.785140
85.941432,89.865419
85.941422,89.865423
85.709949,89.983365
85.499774,90.136066
85.316066,90.319774
85.163365,90.529949
85.045423,90.761422
85.045419,90.761432
84.965140,91.008506
84.965138,91.008512
84.924501,91.265091
84.924500,91.265107
84.924500,91.524892
84.924501,91.524908
84.965138,91.781487
84.965140,91.781493
85.045419,92.028567
85.045423,92.028577
85.163365,92.260050
85.261389,92.394968
85.316069,92.470229
85.334773,92.488933
85.388747,92.569712
85.407701,92.665000
85.388747,92.760288
85.334773,92.841066
85.323583,92.852257
85.316066,92.859774
85.163365,93.069949
85.045423,93.301422
85.045419,93.301432
84.965140,93.548506
84.965138,93.548512
84.924501,93.805091
84.924500,93.805107
84.924500,94.064892
84.924501,94.064908
84.965138,94.321487
84.965140,94.321493
85.045419,94.568567
85.045423,94.568576
85.167140,94.807458
85.193512,94.900965
85.182093,94.997446
85.134622,95.082214
85.121352,95.096569
85.095183,95.122738
85.095182,95.122738
84.999214,95.275470
84.999212,95.275476
84.939632,95.445746
84.939630,95.445754
84.924500,95.580031
84.924500,97.369968
84.939630,97.504245
84.939631,97.504251
84.939632,97.504255
84.999211,97.674522
84.999212,97.674523
84.999214,97.674529
85.095180,97.827257
85.095182,97.827259
85.095184,97.827262
85.222738,97.954816
85.222740,97.954817
85.222742,97.954819
85.375470,98.050785
85.375473,98.050786
85.375478,98.050789
85.545745,98.110368
85.545754,98.110369
85.680031,98.125499
85.680046,98.125500
87.469954,98.125500
87.469968,98.125499
87.580079,98.113091
87.604255,98.110368
87.774522,98.050789
87.774527,98.050785
87.774529,98.050785
87.927260,97.954817
87.927259,97.954817
87.927262,97.954816
87.980454,97.901623
88.033649,97.848430
88.114431,97.794454
88.209718,97.775500
89.227349,97.775500
89.227352,97.775500
89.227355,97.775499
89.227361,97.775499
89.429530,97.743478
89.429531,97.743477
89.429535,97.743477
89.526876,97.711848
89.624219,97.680220
89.715414,97.633753
89.806611,97.587287
89.972219,97.466966
94.433026,93.006156
94.433031,93.006153
94.447217,92.991966
94.447219,92.991966
94.591966,92.847219
94.712287,92.681610
94.747609,92.612287
94.805221,92.499218
94.868477,92.304534
94.871650,92.284500
94.900500,92.102352
94.900500,87.841825
94.919454,87.746537
94.973430,87.665755
95.465755,87.173430
95.546537,87.119454
95.641825,87.100500
98.102349,87.100500
98.102352,87.100500
98.102355,87.100499
98.102361,87.100499
98.304530,87.068478
98.304531,87.068477
98.304535,87.068477
98.401876,87.036848
98.499219,87.005220
98.610397,86.948572
98.681611,86.912287
98.847219,86.791966
100.293024,85.346158
100.293031,85.346153
100.307217,85.331966
100.307219,85.331966
100.451966,85.187219
100.572287,85.021610
100.590144,84.986563
100.607357,84.952782
100.607357,84.952781
100.665221,84.839218
100.728477,84.644534
100.754591,84.479661
100.760500,84.442352
100.760500,83.413774
123.124500,83.413774
123.124500,83.686225
123.155002,83.956930
123.215616,84.222503
123.215620,84.222518
123.215622,84.222523
123.305598,84.479659
123.305602,84.479669
123.423797,84.725104
123.423804,84.725117
123.568739,84.955778
123.622015,85.022584
123.738595,85.168770
123.931230,85.361405
124.073923,85.475199
124.144221,85.531260
124.374882,85.676195
124.374895,85.676202
124.620330,85.794397
124.620332,85.794397
124.620339,85.794401
124.877477,85.884378
124.877480,85.884378
124.877481,85.884379
124.877496,85.884383
125.112268,85.937967
125.143073,85.944998
125.289709,85.961519
125.413774,85.975499
125.413787,85.975500
125.686213,85.975500
125.686225,85.975499
125.780211,85.964909
125.956927,85.944998
126.068501,85.919532
126.222503,85.884383
126.222514,85.884379
126.222523,85.884378
126.479661,85.794401
126.725109,85.676200
126.955779,85.531260
127.168770,85.361405
127.361405,85.168770
127.531260,84.955779
127.676200,84.725109
127.794401,84.479661
127.884378,84.222523
127.904299,84.135245
127.922736,84.054464
127.944998,83.956927
127.975500,83.686213
127.975500,83.413787
127.968224,83.349213
127.961519,83.289709
127.944998,83.143073
127.932881,83.089985
127.884383,82.877496
127.884379,82.877481
127.844115,82.762414
127.794401,82.620339
127.788027,82.607104
127.676202,82.374895
127.676195,82.374882
127.531260,82.144221
127.447931,82.039730
127.361405,81.931230
127.168770,81.738595
126.955779,81.568740
126.955780,81.568740
126.955778,81.568739
126.725117,81.423804
126.725104,81.423797
126.479669,81.305602
126.479662,81.305599
126.479661,81.305599
126.365274,81.265573
126.222518,81.215620
126.222503,81.215616
125.956930,81.155002
125.686225,81.124500
125.686213,81.124500
125.413787,81.124500
125.413774,81.124500
125.143069,81.155002
124.877496,81.215616
124.877481,81.215620
124.620330,81.305602
124.374895,81.423797
124.374882,81.423804
124.144221,81.568739
123.931233,81.738592
123.931225,81.738599
123.738599,81.931225
123.738592,81.931233
123.568739,82.144221
123.423804,82.374882
123.423797,82.374895
123.305602,82.620330
123.215620,82.877481
123.215616,82.877496
123.155002,83.143069
123.124500,83.413774
100.760500,83.413774
100.760500,83.150355
100.779454,83.055067
100.833430,82.974285
100.914212,82.920309
101.009500,82.901355
101.104788,82.920309
101.133998,82.934714
101.257355,83.005935
101.257360,83.005937
101.460269,83.089985
101.460273,83.089986
101.672425,83.146832
101.890182,83.175500
102.109818,83.175500
102.327575,83.146832
102.539727,83.089986
102.539728,83.089985
102.539730,83.089985
102.624029,83.055067
102.742645,83.005935
102.932855,82.896116
103.016821,82.831685
103.113572,82.757448
103.114430,82.758566
103.189953,82.714959
103.286277,82.702275
103.380122,82.727417
103.425966,82.758049
103.426428,82.757448
103.582854,82.877477
103.607145,82.896116
103.797352,83.005933
103.797357,83.005936
103.797360,83.005937
104.000269,83.089985
104.000273,83.089986
104.212425,83.146832
104.430182,83.175500
104.649818,83.175500
104.867575,83.146832
105.079727,83.089986
105.079728,83.089985
105.079730,83.089985
105.164029,83.055067
105.282645,83.005935
105.472855,82.896116
105.556821,82.831685
105.653572,82.757448
105.654430,82.758566
105.729953,82.714959
105.826277,82.702275
105.920122,82.727417
105.965966,82.758049
105.966428,82.757448
106.122854,82.877477
106.147145,82.896116
106.337352,83.005933
106.337357,83.005936
106.337360,83.005937
106.540269,83.089985
106.540273,83.089986
106.752425,83.146832
106.970182,83.175500
107.189818,83.175500
107.407575,83.146832
107.619727,83.089986
107.619728,83.089985
107.619730,83.089985
107.704029,83.055067
107.822645,83.005935
108.012855,82.896116
108.096821,82.831685
108.193572,82.757448
108.194430,82.758566
108.269953,82.714959
108.366277,82.702275
108.460122,82.727417
108.505966,82.758049
108.506428,82.757448
108.662854,82.877477
108.687145,82.896116
108.877352,83.005933
108.877357,83.005936
108.877360,83.005937
109.080269,83.089985
109.080273,83.089986
109.292425,83.146832
109.510182,83.175500
109.729818,83.175500
109.947575,83.146832
110.159727,83.089986
110.159728,83.089985
110.159730,83.089985
110.244029,83.055067
110.362645,83.005935
110.552855,82.896116
110.636821,82.831685
110.733572,82.757448
110.734430,82.758566
110.809953,82.714959
110.906277,82.702275
111.000122,82.727417
111.045966,82.758049
111.046428,82.757448
111.202854,82.877477
111.227145,82.896116
111.417352,83.005933
111.417357,83.005936
111.417360,83.005937
111.620269,83.089985
111.620273,83.089986
111.832425,83.146832
112.050182,83.175500
112.269818,83.175500
112.487575,83.146832
112.699727,83.089986
112.699728,83.089985
112.699730,83.089985
112.784029,83.055067
112.902645,83.005935
113.092855,82.896116
113.176821,82.831685
113.273572,82.757448
113.274430,82.758566
113.349953,82.714959
113.446277,82.702275
113.540122,82.727417
113.585966,82.758049
113.586428,82.757448
113.742854,82.877477
113.767145,82.896116
113.957352,83.005933
113.957357,83.005936
113.957360,83.005937
114.160269,83.089985
114.160273,83.089986
114.372425,83.146832
114.590182,83.175500
114.809818,83.175500
115.027575,83.146832
115.239727,83.089986
115.239728,83.089985
115.239730,83.089985
115.324029,83.055067
115.442645,83.005935
115.632855,82.896116
115.716821,82.831685
115.813572,82.757448
115.814430,82.758566
115.889953,82.714959
115.986277,82.702275
116.080122,82.727417
116.125966,82.758049
116.126428,82.757448
116.282854,82.877477
116.307145,82.896116
116.497352,83.005933
116.497357,83.005936
116.497360,83.005937
116.700269,83.089985
116.700273,83.089986
116.912425,83.146832
117.130182,83.175500
117.349818,83.175500
117.567575,83.146832
117.779727,83.089986
117.779728,83.089985
117.779730,83.089985
117.864029,83.055067
117.982645,83.005935
118.172855,82.896116
118.256821,82.831685
118.353572,82.757448
118.354430,82.758566
118.429953,82.714959
118.526277,82.702275
118.620122,82.727417
118.665966,82.758049
118.666428,82.757448
118.822854,82.877477
118.847145,82.896116
119.037352,83.005933
119.037357,83.005936
119.037360,83.005937
119.240269,83.089985
119.240273,83.089986
119.452425,83.146832
119.670182,83.175500
119.889818,83.175500
120.107575,83.146832
120.319727,83.089986
120.319728,83.089985
120.319730,83.089985
120.404029,83.055067
120.522645,83.005935
120.712855,82.896116
120.887104,82.762410
121.042410,82.607104
121.050001,82.597212
121.080500,82.557464
121.176116,82.432855
121.285935,82.242645
121.369986,82.039727
121.426832,81.827575
121.455500,81.609818
121.455500,81.390182
121.426832,81.172425
121.369986,80.960273
121.369985,80.960269
121.322151,80.844788
121.303197,80.749500
121.322151,80.654212
121.376127,80.573431
121.456909,80.519454
121.552197,80.500500
124.127349,80.500500
124.127352,80.500500
124.127355,80.500499
124.127361,80.500499
124.329530,80.468478
124.329531,80.468477
124.329535,80.468477
124.426876,80.436848
124.524219,80.405220
124.664836,80.333572
124.706611,80.312287
124.872219,80.191966
125.708024,79.356158
125.708031,79.356153
125.722217,79.341966
125.722219,79.341966
125.866966,79.197219
125.987287,79.031610
126.029660,78.948449
126.080221,78.849218
126.143477,78.654534
126.175501,78.452351
126.175501,78.247648
126.175501,78.238826
126.175500,78.238796
126.175500,77.626604
126.194454,77.531316
126.248430,77.450534
126.253176,77.445788
126.279876,77.419088
126.412784,77.245879
126.521947,77.056804
126.605496,76.855097
126.662003,76.644211
126.690500,76.427754
126.690500,76.209428
126.662003,75.992971
126.605496,75.782085
126.552258,75.653557
126.521949,75.580383
126.521947,75.580379
126.521947,75.580378
126.412784,75.391303
126.392935,75.365435
126.279880,75.218098
126.125492,75.063710
125.952292,74.930810
125.952291,74.930809
125.952288,74.930807
125.763213,74.821644
125.763211,74.821643
125.763207,74.821641
125.561511,74.738096
125.502556,74.722299
125.350620,74.681588
125.350613,74.681587
125.134163,74.653091
124.615837,74.653091
124.399386,74.681587
124.399384,74.681587
124.399380,74.681588
124.293937,74.709841
124.188488,74.738096
123.986792,74.821641
123.986788,74.821643
123.797707,74.930810
123.624507,75.063710
123.470119,75.218098
123.337219,75.391298
123.337216,75.391302
123.337216,75.391303
123.321894,75.417841
123.228052,75.580379
123.228050,75.580383
123.144505,75.782079
123.126278,75.850104
123.087997,75.992971
123.059500,76.209428
123.059500,76.427754
123.087997,76.644211
123.128708,76.796147
123.144505,76.855102
123.228050,77.056798
123.228052,77.056802
123.228053,77.056804
123.337216,77.245879
123.337218,77.245882
123.337219,77.245883
123.470119,77.419083
123.501570,77.450534
123.555546,77.531316
123.574500,77.626604
123.574500,77.650500
123.555546,77.745788
123.501570,77.826570
123.420788,77.880546
123.325500,77.899500
119.400604,77.899500
119.305316,77.880546
119.224534,77.826570
119.170558,77.745788
119.151604,77.650500
119.170558,77.555212
119.224534,77.474430
119.248430,77.450534
119.279876,77.419088
119.412784,77.245879
119.521947,77.056804
119.605496,76.855097
119.662003,76.644211
119.690500,76.427754
119.690500,76.209428
119.662003,75.992971
119.605496,75.782085
119.552258,75.653557
119.521949,75.580383
119.521947,75.580379
119.521947,75.580378
119.412784,75.391303
119.392935,75.365435
119.279880,75.218098
119.125492,75.063710
118.952292,74.930810
118.952291,74.930809
118.952288,74.930807
118.763213,74.821644
118.763211,74.821643
118.763207,74.821641
118.561511,74.738096
118.502556,74.722299
118.350620,74.681588
118.350613,74.681587
118.134163,74.653091
117.615837,74.653091
117.399386,74.681587
117.399384,74.681587
117.399380,74.681588
117.293937,74.709841
117.188488,74.738096
116.986792,74.821641
116.986788,74.821643
116.797707,74.930810
116.751018,74.966636
116.663883,75.009607
116.599437,75.018091
113.504047,75.018091
113.301886,75.050111
113.301868,75.050116
113.107201,75.113366
113.107185,75.113372
113.005545,75.165161
113.005542,75.165162
112.985873,75.175185
112.924799,75.206304
112.759190,75.326625
112.655872,75.429942
112.642218,75.440282
112.613616,75.454160
112.587189,75.471818
112.570301,75.475177
112.554810,75.482694
112.523078,75.484570
112.491901,75.490772
112.475012,75.487412
112.457824,75.488429
112.427792,75.478019
112.396613,75.471818
112.382293,75.462250
112.366027,75.456612
112.342264,75.435502
112.315832,75.417841
112.294356,75.393353
112.292787,75.391308
112.292784,75.391303
112.159876,75.218094
112.005497,75.063715
112.005492,75.063710
111.832292,74.930810
111.832291,74.930809
111.832288,74.930807
111.643213,74.821644
111.643211,74.821643
111.643207,74.821641
111.441511,74.738096
111.382556,74.722299
111.230620,74.681588
111.230613,74.681587
111.014163,74.653091
110.495837,74.653091
110.279386,74.681587
110.279384,74.681587
110.279380,74.681588
110.173937,74.709841
110.068488,74.738096
109.866792,74.821641
109.866788,74.821643
109.677707,74.930810
109.631018,74.966636
109.543883,75.009607
109.479437,75.018091
108.229047,75.018091
108.026886,75.050111
108.026868,75.050116
107.832201,75.113366
107.832185,75.113372
107.761659,75.149308
107.710873,75.175185
107.679731,75.191052
107.649802,75.206302
107.649800,75.206303
107.484188,75.326626
107.339440,75.471375
106.088028,76.722787
105.967712,76.888388
105.967712,76.888389
105.963830,76.896009
105.963830,76.896010
105.874779,77.070782
105.874777,77.070788
105.811522,77.265468
105.779500,77.467638
105.779500,78.189175
105.760546,78.284463
105.706570,78.365245
105.625788,78.419221
105.530500,78.438175
105.435212,78.419221
105.354430,78.365245
104.873430,77.884245
104.819454,77.803463
104.800500,77.708175
104.800500,77.626604
104.819454,77.531316
104.873430,77.450534
104.878176,77.445788
104.904876,77.419088
105.037784,77.245879
105.146947,77.056804
105.230496,76.855097
105.287003,76.644211
105.315500,76.427754
105.315500,76.209428
105.287003,75.992971
105.230496,75.782085
105.177258,75.653557
105.146949,75.580383
105.146947,75.580379
105.146947,75.580378
105.037784,75.391303
105.017935,75.365435
104.904880,75.218098
104.750492,75.063710
104.577292,74.930810
104.577291,74.930809
104.577288,74.930807
104.388213,74.821644
104.388211,74.821643
104.388207,74.821641
104.186511,74.738096
104.127556,74.722299
103.975620,74.681588
103.975613,74.681587
103.759163,74.653091
103.240837,74.653091
103.024386,74.681587
103.024384,74.681587
103.024380,74.681588
102.918937,74.709841
102.813488,74.738096
102.611792,74.821641
102.611788,74.821643
102.422707,74.930810
102.249507,75.063710
102.095119,75.218098
101.962219,75.391298
101.962216,75.391302
101.962216,75.391303
101.946894,75.417841
101.853052,75.580379
101.853050,75.580383
101.769505,75.782079
101.751278,75.850104
101.712997,75.992971
101.684500,76.209428
101.684500,76.427754
101.712997,76.644211
101.753708,76.796147
101.769505,76.855102
101.853050,77.056798
101.853052,77.056802
101.962218,77.245883
102.026736,77.329965
102.069706,77.417101
102.076059,77.514048
102.044829,77.606047
101.980770,77.679091
101.893634,77.722061
101.796687,77.728414
101.716147,77.703405
101.699219,77.694780
101.699218,77.694779
101.699211,77.694776
101.601877,77.663151
101.601877,77.663150
101.504534,77.631522
101.302361,77.599500
101.302352,77.599500
98.091131,77.599500
97.995843,77.580546
97.915061,77.526570
97.861085,77.445788
97.842131,77.350500
97.861085,77.255212
97.875486,77.226008
97.973177,77.056804
98.056726,76.855097
98.113233,76.644211
98.141730,76.427754
98.141730,76.209428
98.113233,75.992971
98.056726,75.782085
98.003488,75.653557
97.973179,75.580383
97.973177,75.580379
97.973177,75.580378
97.864014,75.391303
97.844165,75.365435
97.731110,75.218098
97.576722,75.063710
97.403522,74.930810
97.403521,74.930809
97.403518,74.930807
97.214443,74.821644
97.214441,74.821643
97.214437,74.821641
97.012741,74.738096
96.953786,74.722299
96.801850,74.681588
96.801843,74.681587
96.585393,74.653091
96.067067,74.653091
95.850616,74.681587
95.850614,74.681587
95.850610,74.681588
95.745167,74.709841
95.639718,74.738096
95.438022,74.821641
95.438018,74.821643
95.248937,74.930810
95.075737,75.063710
94.921349,75.218098
94.788449,75.391298
94.788446,75.391302
94.788446,75.391303
94.773124,75.417841
94.679282,75.580379
94.679280,75.580383
94.595735,75.782079
94.577508,75.850104
94.539227,75.992971
94.510730,76.209428
94.510730,76.427754
94.539227,76.644211
94.579938,76.796147
94.595735,76.855102
94.679280,77.056798
94.679282,77.056802
94.679283,77.056804
94.788446,77.245879
94.788448,77.245882
94.788449,77.245883
94.921349,77.419083
94.952800,77.450534
95.006776,77.531316
95.025730,77.626604
95.025730,78.203591
95.057751,78.405759
95.069225,78.441071
95.069224,78.441071
95.121008,78.600446
95.133400,78.624765
95.133401,78.624771
95.133403,78.624771
95.213945,78.782845
95.334258,78.948442
95.334263,78.948448
96.076292,79.690478
96.087057,79.706589
96.101318,79.719709
96.113795,79.746606
96.130268,79.771259
96.134048,79.790263
96.142203,79.807842
96.143437,79.837468
96.149222,79.866547
96.145441,79.885550
96.146249,79.904913
96.136051,79.932757
96.130268,79.961835
96.119503,79.977945
96.112839,79.996143
96.097026,80.011584
96.076291,80.042617
96.047060,80.067643
96.036272,80.075519
95.987145,80.103884
95.812896,80.237590
95.809050,80.241435
95.796838,80.250353
95.762654,80.266210
95.730019,80.285049
95.718889,80.286513
95.708705,80.291238
95.671054,80.292807
95.633694,80.297723
95.622850,80.294816
95.611634,80.295284
95.576245,80.282324
95.539852,80.272569
95.528019,80.264662
95.520404,80.261874
95.511273,80.253473
95.494031,80.241953
95.493572,80.242552
95.312859,80.103887
95.312858,80.103886
95.312855,80.103884
95.175813,80.024762
95.122642,79.994063
95.122639,79.994062
94.919730,79.910014
94.798908,79.877640
94.707575,79.853168
94.707570,79.853167
94.707572,79.853167
94.489818,79.824500
94.270182,79.824500
94.052429,79.853167
93.840269,79.910014
93.637360,79.994062
93.637357,79.994063
93.447140,80.103887
93.266428,80.242552
93.265572,80.241437
93.190019,80.285049
93.093694,80.297723
92.999852,80.272569
92.954031,80.241953
92.953572,80.242552
92.772859,80.103887
92.772858,80.103886
92.772855,80.103884
92.635813,80.024762
92.582642,79.994063
92.582639,79.994062
92.379730,79.910014
92.258908,79.877640
92.167575,79.853168
92.167570,79.853167
92.167572,79.853167
91.949818,79.824500
91.730182,79.824500
91.512429,79.853167
91.300269,79.910014
91.097360,79.994062
91.097357,79.994063
90.907140,80.103887
90.726428,80.242552
90.725572,80.241437
90.650019,80.285049
90.553694,80.297723
90.459852,80.272569
90.414031,80.241953
90.413572,80.242552
90.232859,80.103887
90.232858,80.103886
90.232855,80.103884
90.095813,80.024762
90.042642,79.994063
90.042639,79.994062
89.839730,79.910014
89.718908,79.877640
89.627575,79.853168
89.627570,79.853167
89.627572,79.853167
89.409818,79.824500
89.190182,79.824500
88.972429,79.853167
88.760269,79.910014
88.557360,79.994062
88.557357,79.994063
88.367140,80.103887
88.192900,80.237585
88.037585,80.392900
87.903887,80.567140
87.794063,80.757357
87.794062,80.757360
87.710014,80.960269
87.653167,81.172429
87.624500,81.390182
87.624500,81.609817
87.653167,81.827570
87.710014,82.039730
87.794062,82.242639
87.794063,82.242642
87.903884,82.432855
87.948045,82.490406
87.991015,82.577541
87.999500,82.641988
87.999500,84.821139
87.980546,84.916427
87.926570,84.997209
87.845788,85.051185
87.750500,85.070139
87.655212,85.051185
87.604141,85.022584
87.440050,84.903365
87.208577,84.785423
87.208567,84.785419
86.961493,84.705140
86.961487,84.705138
86.704908,84.664501
86.704899,84.664500
86.704897,84.664500
86.445103,84.664500
86.445100,84.664500
86.445091,84.664501
86.188512,84.705138
86.096444,84.735053
85.999962,84.746471
85.906455,84.720099
85.830158,84.659950
85.782686,84.575183
85.770500,84.498239
85.770500,82.184583
85.789454,82.089295
85.809986,82.039727
85.866832,81.827575
85.895500,81.609818
85.895500,81.390182
85.866832,81.172425
85.809986,80.960273
85.789453,80.910703
85.770500,80.815416
85.770500,75.325378
85.789454,75.230090
85.843430,75.149308
88.130717,72.862021
88.211499,72.808045
88.306787,72.789091
94.825853,72.789091
94.921141,72.808045
94.958322,72.827252
94.961708,72.829380
94.961714,72.829382
94.961716,72.829383
95.029934,72.853253
95.131975,72.888959
95.131984,72.888960
95.266261,72.904090
95.266276,72.904091
97.386184,72.904091
97.386198,72.904090
97.496309,72.891682
97.520485,72.888959
97.690752,72.829380
97.694136,72.827253
97.699100,72.825358
97.703344,72.823315
97.703516,72.823673
97.784902,72.792608
97.826607,72.789091
101.999623,72.789091
102.094911,72.808045
102.132092,72.827252
102.135478,72.829380
102.135484,72.829382
102.135486,72.829383
102.203704,72.853253
102.305745,72.888959
102.305754,72.888960
102.440031,72.904090
102.440046,72.904091
104.559954,72.904091
104.559968,72.904090
104.670079,72.891682
104.694255,72.888959
104.864522,72.829380
104.867906,72.827253
104.872870,72.825358
104.877114,72.823315
104.877286,72.823673
104.958672,72.792608
105.000377,72.789091
109.254623,72.789091
109.349911,72.808045
109.387092,72.827252
109.390478,72.829380
109.390484,72.829382
109.390486,72.829383
109.458704,72.853253
109.560745,72.888959
109.560754,72.888960
109.695031,72.904090
109.695046,72.904091
111.814954,72.904091
111.814968,72.904090
111.925079,72.891682
111.949255,72.888959
112.119522,72.829380
112.122906,72.827253
112.127870,72.825358
112.132114,72.823315
112.132286,72.823673
112.213672,72.792608
112.255377,72.789091
116.374623,72.789091
116.469911,72.808045
116.507092,72.827252
116.510478,72.829380
116.510484,72.829382
116.510486,72.829383
116.578704,72.853253
116.680745,72.888959
116.680754,72.888960
116.815031,72.904090
116.815046,72.904091
118.934954,72.904091
118.934968,72.904090
119.045079,72.891682
119.069255,72.888959
119.239522,72.829380
119.242906,72.827253
119.247870,72.825358
119.252114,72.823315
119.252286,72.823673
119.333672,72.792608
119.375377,72.789091
123.374623,72.789091
123.469911,72.808045
123.507092,72.827252
123.510478,72.829380
123.510484,72.829382
123.510486,72.829383
123.578704,72.853253
123.680745,72.888959
123.680754,72.888960
123.815031,72.904090
123.815046,72.904091
125.934954,72.904091
125.934968,72.904090
126.045079,72.891682
126.069255,72.888959
126.239522,72.829380
126.242906,72.827253
126.247870,72.825358
126.252114,72.823315
126.252286,72.823673
126.333672,72.792608
126.375377,72.789091
130.093213,72.789091
130.188501,72.808045
130.269283,72.862021
131.951570,74.544308
132.005546,74.625090
132.024500,74.720378
132.024500,79.091378
132.012313,79.168323
131.965140,79.313506
131.965138,79.313512
131.924501,79.570091
131.924500,79.570100
131.924500,79.570103
131.924500,79.829897
131.965140,80.086493
131.965141,80.086495
132.012313,80.231676
132.024500,80.308621
132.024500,110.200500
132.005546,110.295788
131.951570,110.376570
131.870788,110.430546
131.775500,110.449500
129.975031,110.449500
129.840754,110.464630
129.840746,110.464631
129.840745,110.464632
129.670478,110.524211
129.670476,110.524211
129.670476,110.524212
129.670470,110.524214
129.517742,110.620180
129.390180,110.747742
129.294214,110.900470
129.294211,110.900476
129.294211,110.900478
129.236539,111.065297
129.234632,111.070746
129.234630,111.070754
129.219500,111.205031
129.219500,112.799630
129.200546,112.894918
129.146570,112.975700
129.065788,113.029676
128.970500,113.048630
128.906056,113.040146
128.855899,113.026707
128.832014,113.020307
128.832012,113.020306
128.832010,113.020306
128.598011,112.989500
128.361989,112.989500
128.127989,113.020306
128.127986,113.020307
127.973170,113.061789
127.876223,113.068143
127.784225,113.036913
127.711180,112.972853
127.668210,112.885717
127.661856,112.788770
127.668211,112.756827
127.676369,112.726379
127.709693,112.602014
127.740500,112.368011
127.740500,112.131989
127.709693,111.897986
127.648606,111.670007
127.558284,111.451951
127.440273,111.247550
127.296592,111.060301
127.129699,110.893408
126.942450,110.749727
126.939005,110.747738
126.738054,110.631718
126.738043,110.631713
126.617222,110.581667
126.519993,110.541394
126.292014,110.480307
126.292007,110.480306
126.058011,110.449500
125.821989,110.449500
125.587992,110.480306
125.587990,110.480306
125.587986,110.480307
125.415640,110.526487
125.360010,110.541393
125.360002,110.541395
125.294785,110.568409
125.199497,110.587362
125.104209,110.568407
125.023428,110.514429
124.969453,110.433647
124.950500,110.338362
124.950500,105.877975
124.950499,105.877963
124.921203,105.693001
124.912321,105.636924
124.836904,105.404815
124.726106,105.187361
124.582655,104.989917
124.517869,104.925131
124.410083,104.817344
124.410083,104.817345
122.130083,102.537345
121.932639,102.393894
121.715185,102.283096
121.715182,102.283095
121.715180,102.283094
121.483073,102.207678
121.242036,102.169500
121.242027,102.169500
115.565378,102.169500
115.470090,102.150546
115.389308,102.096570
115.173430,101.880692
115.119454,101.799910
115.100500,101.704622
115.100500,95.777975
115.100499,95.777963
115.069151,95.580046
115.062321,95.536924
114.986904,95.304815
114.876106,95.087361
114.732655,94.889917
114.650196,94.807458
114.560084,94.717345
113.810084,93.967346
113.800388,93.960301
113.612639,93.823894
113.395185,93.713096
113.395182,93.713095
113.395180,93.713094
113.163073,93.637678
112.922036,93.599500
112.922027,93.599500
111.919673,93.599500
111.824385,93.580546
111.795178,93.566143
111.748684,93.539299
111.735551,93.531717
111.735549,93.531716
111.517493,93.441394
111.289514,93.380307
111.289507,93.380306
111.055511,93.349500
110.819489,93.349500
110.585492,93.380306
110.585490,93.380306
110.585486,93.380307
110.413140,93.426487
110.357510,93.441393
110.357507,93.441394
110.139456,93.531713
110.139445,93.531718
109.935059,93.649721
109.935049,93.649727
109.747801,93.793408
109.747797,93.793411
109.580911,93.960297
109.580908,93.960301
109.437227,94.147549
109.437221,94.147559
109.319218,94.351945
109.319213,94.351956
109.240568,94.541824
109.228894,94.570007
109.167807,94.797986
109.167806,94.797990
109.167806,94.797992
109.146525,94.959636
109.137000,95.031989
109.137000,95.268011
109.167807,95.502014
109.177162,95.536926
109.228893,95.729989
109.228894,95.729992
109.319213,95.948043
109.319218,95.948054
109.437221,96.152440
109.437227,96.152450
109.580908,96.339699
109.747801,96.506592
109.935050,96.650273
109.935059,96.650278
110.139445,96.768281
110.139448,96.768282
110.139451,96.768284
110.357507,96.858606
110.585486,96.919693
110.819489,96.950500
111.055511,96.950500
111.289514,96.919693
111.517493,96.858606
111.655216,96.801558
111.750499,96.782606
111.845788,96.801560
111.926569,96.855536
111.980546,96.936317
111.999500,97.031605
111.999500,98.148453
111.980546,98.243741
111.926570,98.324523
111.845788,98.378499
111.750500,98.397453
111.655212,98.378499
111.574433,98.324525
111.103287,97.853379
110.996096,97.775500
110.953595,97.744621
110.788746,97.660626
110.788744,97.660625
110.788736,97.660621
110.612764,97.603445
110.612758,97.603444
110.612753,97.603442
110.430023,97.574500
110.430014,97.574500
109.182486,97.574500
109.182476,97.574500
108.999746,97.603442
108.999741,97.603444
108.999739,97.603444
108.999736,97.603445
108.895495,97.637314
108.818555,97.649500
108.566360,97.649500
108.544226,97.651467
108.452948,97.659583
108.449317,97.660622
108.267094,97.712762
108.095753,97.802263
108.095748,97.802266
107.945930,97.924427
107.945927,97.924430
107.823766,98.074248
107.823763,98.074253
107.734262,98.245594
107.734260,98.245601
107.705211,98.347121
107.660775,98.433519
107.586658,98.496334
107.494144,98.526005
107.436311,98.524759
107.436271,98.525268
107.427355,98.524566
107.426872,98.524556
107.426525,98.524501
107.426516,98.524500
107.426514,98.524500
107.241486,98.524500
107.241476,98.524500
107.058746,98.553442
107.058741,98.553444
107.058739,98.553444
107.058736,98.553445
106.954495,98.587314
106.877555,98.599500
106.691360,98.599500
106.669226,98.601467
106.577948,98.609583
106.577945,98.609584
106.392094,98.662762
106.220753,98.752263
106.220748,98.752266
106.070930,98.874427
106.070927,98.874430
105.948766,99.024248
105.948763,99.024253
105.859262,99.195594
105.816063,99.346570
105.806083,99.381448
105.796000,99.494862
105.796000,99.905138
105.806083,100.018552
105.812762,100.041893
105.859262,100.204405
105.948763,100.375746
105.948766,100.375751
106.070929,100.525571
106.070934,100.525575
106.079859,100.534500
106.078277,100.536081
106.128717,100.597137
106.157221,100.690017
106.158500,100.715226
106.158500,101.366594
106.139546,101.461882
106.085570,101.542664
106.004788,101.596640
105.909500,101.615594
105.814212,101.596640
105.777025,101.577429
105.689627,101.522514
105.689625,101.522513
105.689622,101.522511
105.519355,101.462932
105.519351,101.462931
105.519345,101.462930
105.385068,101.447800
105.385054,101.447800
103.951200,101.447800
103.855912,101.428846
103.775130,101.374870
103.721154,101.294088
103.702200,101.198800
103.702200,100.487946
103.702199,100.487931
103.687069,100.353654
103.687068,100.353645
103.627489,100.183378
103.627486,100.183373
103.627485,100.183370
103.531519,100.030642
103.531517,100.030640
103.531516,100.030638
103.403962,99.903084
103.403959,99.903082
103.403955,99.903078
103.394246,99.895335
103.331566,99.821103
103.302065,99.728535
103.300500,99.700663
103.300500,94.541824
103.319454,94.446536
103.373430,94.365754
104.865754,92.873430
104.946536,92.819454
105.041824,92.800500
115.465282,92.800500
115.560570,92.819454
115.641351,92.873430
115.747739,92.979817
115.747738,92.979817
115.900470,93.075785
115.900473,93.075786
115.900478,93.075789
116.070745,93.135368
116.070754,93.135369
116.205031,93.150499
116.205046,93.150500
117.994954,93.150500
117.994968,93.150499
118.105079,93.138091
118.129255,93.135368
118.299522,93.075789
118.299527,93.075785
118.299529,93.075785
118.452257,92.979819
118.452256,92.979819
118.452262,92.979816
118.579816,92.852262
118.675789,92.699522
118.735368,92.529255
118.742019,92.470225
118.750499,92.394968
118.750500,92.394953
118.750500,90.605046
118.750499,90.605031
118.735369,90.470754
118.735368,90.470745
118.675789,90.300478
118.675786,90.300473
118.675785,90.300470
118.579819,90.147742
118.579817,90.147740
118.579816,90.147738
118.452262,90.020184
118.452259,90.020182
118.452257,90.020180
118.299529,89.924214
118.299524,89.924212
118.299522,89.924211
118.129255,89.864632
118.129251,89.864631
118.129245,89.864630
117.994968,89.849500
117.994954,89.849500
116.205046,89.849500
116.205031,89.849500
116.070754,89.864630
116.070746,89.864631
116.070745,89.864632
115.900478,89.924211
115.900476,89.924211
115.900476,89.924212
115.900470,89.924214
115.747739,90.020182
115.641351,90.126570
115.560569,90.180546
115.465282,90.199500
104.512650,90.199500
104.512626,90.199499
104.502352,90.199499
104.297649,90.199499
104.297641,90.199499
104.095474,90.231521
104.095458,90.231525
103.900786,90.294776
103.893558,90.298459
103.889001,90.300782
103.802006,90.345108
103.718393,90.387711
103.718391,90.387712
103.552779,90.508035
103.408031,90.652784
101.008028,93.052787
100.887715,93.218385
100.862191,93.268479
100.794779,93.400782
100.794777,93.400788
100.782988,93.437070
100.782981,93.437093
100.781584,93.441394
100.731523,93.595465
100.725979,93.630466
100.723628,93.645308
100.723626,93.645316
100.699501,93.797639
100.699500,93.797652
100.699500,99.700663
100.680546,99.795951
100.626570,99.876733
100.605754,99.895335
100.596044,99.903078
100.468480,100.030642
100.372514,100.183370
100.372511,100.183376
100.372511,100.183378
100.365154,100.204405
100.312932,100.353646
100.312930,100.353654
100.297800,100.487931
100.297800,100.757475
100.278846,100.852763
100.224870,100.933545
100.144088,100.987521
100.048800,101.006475
99.953512,100.987521
99.872730,100.933545
99.292830,100.353645
98.667219,99.728034
98.667215,99.728031
98.667214,99.728030
98.667212,99.728028
98.501617,99.607717
98.501615,99.607716
98.501611,99.607713
98.363505,99.537345
98.319219,99.514780
98.319218,99.514779
98.319215,99.514778
98.221876,99.483151
98.221876,99.483150
98.124534,99.451522
97.922361,99.419500
97.922352,99.419500
94.509336,99.419500
94.414048,99.400546
94.333266,99.346570
94.314660,99.325749
94.306918,99.316041
94.306917,99.316040
94.306916,99.316038
94.179362,99.188484
94.179359,99.188482
94.179357,99.188480
94.026629,99.092514
94.026624,99.092512
94.026622,99.092511
93.856355,99.032932
93.856351,99.032931
93.856345,99.032930
93.722068,99.017800
93.722054,99.017800
92.031946,99.017800
92.031931,99.017800
91.897654,99.032930
91.897646,99.032931
91.897645,99.032932
91.727378,99.092511
91.612476,99.164709
91.521709,99.199356
91.424592,99.196631
91.347524,99.164709
91.232622,99.092511
91.062355,99.032932
91.062351,99.032931
91.062345,99.032930
90.928068,99.017800
90.928054,99.017800
89.237946,99.017800
89.237931,99.017800
89.103654,99.032930
89.103646,99.032931
89.103645,99.032932
88.933378,99.092511
88.933376,99.092511
88.933376,99.092512
88.933370,99.092514
88.780642,99.188480
88.653080,99.316042
88.557114,99.468770
88.557111,99.468776
88.557111,99.468778
88.533119,99.537345
88.497532,99.639046
88.497530,99.639054
88.482400,99.773331
88.482400,101.470500
88.463446,101.565788
88.409470,101.646570
88.328688,101.700546
88.233400,101.719500
85.987963,101.719500
85.746926,101.757678
85.514819,101.833094
85.297359,101.943895
85.099919,102.087343
83.209917,103.977345
83.209916,103.977344
83.037347,104.149914
83.037346,104.149915
82.893895,104.347359
82.783094,104.564819
82.707678,104.796926
82.669500,105.037963
82.669500,106.215416
82.650546,106.310704
82.630015,106.360268
82.630014,106.360273
82.573168,106.572425
82.573167,106.572429
82.573167,106.572431
82.544500,106.790182
82.544500,107.009817
82.573167,107.227570
82.630014,107.439730
82.714062,107.642639
82.714063,107.642642
82.714065,107.642645
82.823884,107.832855
82.823886,107.832858
82.823887,107.832859
82.957585,108.007099
83.112900,108.162414
83.249486,108.267219
83.287145,108.296116
83.440113,108.384433
83.477357,108.405936
83.477360,108.405937
83.680269,108.489985
83.680273,108.489986
83.892425,108.546832
84.110182,108.575500
84.329818,108.575500
84.547575,108.546832
84.759727,108.489986
84.759728,108.489985
84.759730,108.489985
84.827366,108.461969
84.962645,108.405935
85.152855,108.296116
85.327104,108.162410
85.482410,108.007104
85.490001,107.997212
85.502377,107.981081
85.616116,107.832855
85.725935,107.642645
85.809986,107.439727
85.866832,107.227575
85.895500,107.009818
85.895500,106.790182
85.866832,106.572425
85.809986,106.360273
85.789453,106.310703
85.770500,106.215416
85.770500,105.905378
85.789454,105.810090
85.843430,105.729308
86.679308,104.893430
86.760090,104.839454
86.855378,104.820500
88.695820,104.820500
88.791108,104.839454
88.871890,104.893430
88.925866,104.974212
88.944820,105.069500
88.925866,105.164788
88.871890,105.245570
88.791108,105.299546
88.767988,105.307393
88.767989,105.307394
88.760276,105.310011
88.557360,105.394062
88.557357,105.394063
88.367140,105.503887
88.192900,105.637585
88.037585,105.792900
87.903887,105.967140
87.794063,106.157357
87.794062,106.157360
87.710014,106.360269
87.653167,106.572429
87.624500,106.790182
87.624500,107.009817
87.653167,107.227570
87.710014,107.439730
87.794062,107.642639
87.794063,107.642642
87.794065,107.642645
87.903884,107.832855
87.903886,107.832858
87.903887,107.832859
88.037585,108.007099
88.192900,108.162414
88.329486,108.267219
88.367145,108.296116
88.520113,108.384433
88.557357,108.405936
88.557360,108.405937
88.760269,108.489985
88.760273,108.489986
88.972425,108.546832
89.190182,108.575500
89.409818,108.575500
89.627575,108.546832
89.839727,108.489986
89.839728,108.489985
89.839730,108.489985
89.907366,108.461969
90.042645,108.405935
90.232855,108.296116
90.318993,108.230020
90.413572,108.157448
90.414430,108.158566
90.489953,108.114959
90.586277,108.102275
90.680122,108.127417
90.725966,108.158049
90.726428,108.157448
90.869486,108.267219
90.907145,108.296116
91.060113,108.384433
91.097357,108.405936
91.097360,108.405937
91.300269,108.489985
91.300273,108.489986
91.512425,108.546832
91.730182,108.575500
91.949818,108.575500
92.167575,108.546832
92.379727,108.489986
92.379728,108.489985
92.379730,108.489985
92.447366,108.461969
92.582645,108.405935
92.772855,108.296116
92.858993,108.230020
92.953572,108.157448
92.954430,108.158566
93.029953,108.114959
93.126277,108.102275
93.220122,108.127417
93.265966,108.158049
93.266428,108.157448
93.409486,108.267219
93.447145,108.296116
93.600113,108.384433
93.637357,108.405936
93.637360,108.405937
93.840269,108.489985
93.840273,108.489986
94.052425,108.546832
94.270182,108.575500
94.489818,108.575500
94.707575,108.546832
94.919727,108.489986
94.919728,108.489985
94.919730,108.489985
94.987366,108.461969
95.122645,108.405935
95.245999,108.334715
95.337997,108.303485
95.434944,108.309839
95.522080,108.352809
95.586139,108.425853
95.617370,108.517852
95.619500,108.550355
95.619500,109.862361
95.651522,110.064534
95.651522,110.064535
95.683151,110.161877
95.714777,110.259212
95.714779,110.259215
95.714780,110.259219
95.719108,110.267713
95.759739,110.347457
95.786111,110.440963
95.774692,110.537444
95.727221,110.622212
95.650924,110.682360
95.557416,110.708732
95.537879,110.709500
93.130835,110.709500
93.035547,110.690546
93.006337,110.676142
92.992910,110.668390
92.938049,110.636716
92.938045,110.636714
92.938041,110.636712
92.802063,110.580388
92.719993,110.546394
92.492014,110.485307
92.492007,110.485306
92.258011,110.454500
92.021989,110.454500
91.787992,110.485306
91.787990,110.485306
91.787986,110.485307
91.679302,110.514429
91.560010,110.546393
91.560007,110.546394
91.341956,110.636713
91.341945,110.636718
91.137559,110.754721
91.137539,110.754734
91.100962,110.782800
91.089593,110.788406
91.080319,110.797047
91.046348,110.809731
91.013826,110.825769
91.001177,110.826597
90.989302,110.831032
90.953062,110.829750
90.916879,110.832121
90.904875,110.828046
90.892208,110.827598
90.859220,110.812547
90.824881,110.800890
90.815350,110.792531
90.803818,110.787270
90.787038,110.767701
90.751837,110.736829
90.737590,110.716186
90.732188,110.707449
90.712287,110.668390
90.689275,110.636716
90.591966,110.502781
90.447219,110.358034
90.447215,110.358031
90.440970,110.351785
90.440962,110.351778
89.597220,109.508035
89.597212,109.508028
89.431617,109.387717
89.431615,109.387716
89.431611,109.387713
89.300178,109.320745
89.249219,109.294780
89.089183,109.242781
89.083805,109.241033
89.083793,109.241029
89.054531,109.231521
88.852361,109.199500
88.852352,109.199500
85.502352,109.199500
85.297648,109.199500
85.297638,109.199500
85.095468,109.231521
85.066198,109.241032
85.066186,109.241036
85.060817,109.242781
84.900781,109.294780
84.849822,109.320745
84.718389,109.387713
84.718387,109.387714
84.718382,109.387717
84.552787,109.508028
83.528028,110.532787
83.407713,110.698388
83.403461,110.706733
83.343311,110.783029
83.258542,110.830499
83.162060,110.841916
83.068554,110.815542
83.030023,110.791230
82.982456,110.754731
82.982440,110.754721
82.778054,110.636718
82.778043,110.636713
82.648942,110.583238
82.559993,110.546394
82.332014,110.485307
82.332007,110.485306
82.098011,110.454500
81.861989,110.454500
81.627992,110.485306
81.627990,110.485306
81.627986,110.485307
81.519302,110.514429
81.400010,110.546393
81.400007,110.546394
81.181956,110.636713
81.181945,110.636718
80.977559,110.754721
80.977549,110.754727
80.790301,110.898408
80.790297,110.898411
80.623411,111.065297
80.623408,111.065301
80.479727,111.252549
80.479721,111.252559
80.361718,111.456945
80.361713,111.456956
80.320853,111.555602
80.271394,111.675007
80.210307,111.902986
80.179500,112.136989
80.179500,112.373011
80.210307,112.607014
80.271394,112.834993
80.361716,113.053049
80.361717,113.053052
80.364836,113.060580
80.363688,113.061055
80.386476,113.146133
80.373786,113.242456
80.348843,113.294870
80.254214,113.445472
80.254212,113.445476
80.194632,113.615746
80.194630,113.615754
80.179500,113.750031
80.179500,115.839968
80.194630,115.974245
80.194631,115.974251
80.194632,115.974255
80.254211,116.144522
80.254212,116.144523
80.254214,116.144529
80.350180,116.297257
80.350182,116.297259
80.350184,116.297262
80.477738,116.424816
80.477740,116.424817
80.477742,116.424819
80.630470,116.520785
80.630473,116.520786
80.630478,116.520789
80.800745,116.580368
80.800754,116.580369
80.935031,116.595499
80.935046,116.595500
83.024954,116.595500
83.024968,116.595499
83.135079,116.583091
83.159255,116.580368
83.329522,116.520789
83.329527,116.520785
83.329529,116.520785
83.482257,116.424819
83.482256,116.424819
83.482262,116.424816
83.609816,116.297262
83.642788,116.244788
83.705785,116.144529
83.705785,116.144527
83.705789,116.144522
83.765368,115.974255
83.770402,115.929577
83.780499,115.839968
83.780500,115.839953
83.780500,114.245369
83.799454,114.150081
83.853430,114.069299
83.934212,114.015323
84.029500,113.996369
84.093945,114.004853
84.167986,114.024693
84.401989,114.055500
84.638011,114.055500
84.872014,114.024693
84.996379,113.991369
85.026827,113.983211
85.123774,113.976856
85.215773,114.008086
85.288818,114.072144
85.331788,114.159280
85.338143,114.256227
85.331789,114.288170
85.290307,114.442986
85.290306,114.442989
85.286419,114.472518
85.259500,114.676989
85.259500,114.913011
85.290307,115.147014
85.351394,115.374993
85.369527,115.418770
85.441713,115.593043
85.441718,115.593054
85.559721,115.797440
85.559727,115.797450
85.703408,115.984699
85.870301,116.151592
86.057550,116.295273
86.070499,116.302749
86.261945,116.413281
86.261948,116.413282
86.261951,116.413284
86.480007,116.503606
86.707986,116.564693
86.941989,116.595500
87.178011,116.595500
87.412014,116.564693
87.639993,116.503606
87.705216,116.476589
87.800497,116.457636
87.895786,116.476589
87.976568,116.530564
88.030545,116.611345
88.049500,116.706633
88.049500,117.297036
88.087678,117.538073
88.087679,117.538076
88.163096,117.770185
88.273894,117.987639
88.417345,118.185083
88.506695,118.274433
88.560669,118.355212
88.579623,118.450500
88.560669,118.545788
88.506693,118.626570
88.425911,118.680546
88.330623,118.699500
76.713250,118.699500
76.617962,118.680546
76.537180,118.626570
76.483204,118.545788
76.464250,118.450500
76.464250,74.538774
77.174500,74.538774
77.174500,74.811225
77.205002,75.081930
77.265616,75.347503
77.265620,75.347518
77.355602,75.604669
77.473797,75.850104
77.473804,75.850117
77.563566,75.992971
77.618740,76.080779
77.788595,76.293770
77.981230,76.486405
77.981233,76.486407
78.194221,76.656260
78.424882,76.801195
78.424895,76.801202
78.670330,76.919397
78.670332,76.919397
78.670339,76.919401
78.927477,77.009378
78.927480,77.009378
78.927481,77.009379
78.927496,77.009383
79.162268,77.062967
79.193073,77.069998
79.339709,77.086519
79.463774,77.100499
79.463787,77.100500
79.736213,77.100500
79.736225,77.100499
79.830211,77.089909
80.006927,77.069998
80.118501,77.044532
80.272503,77.009383
80.272514,77.009379
80.272523,77.009378
80.529661,76.919401
80.775109,76.801200
81.005779,76.656260
81.218770,76.486405
81.411405,76.293770
81.581260,76.080779
81.726200,75.850109
81.844401,75.604661
81.934378,75.347523
81.939433,75.325378
81.973713,75.175185
81.994998,75.081927
82.025500,74.811213
82.025500,74.538787
82.016394,74.457973
82.011519,74.414709
81.994998,74.268073
81.983324,74.216924
81.934383,74.002496
81.934379,74.002481
81.928199,73.984819
81.844401,73.745339
81.726200,73.499891
81.726198,73.499889
81.726195,73.499882
81.581260,73.269221
81.411407,73.056233
81.411405,73.056230
81.218770,72.863595
81.005779,72.693740
81.005780,72.693740
81.005778,72.693739
80.775117,72.548804
80.775104,72.548797
80.529669,72.430602
80.529662,72.430599
80.529661,72.430599
80.415274,72.390573
80.272518,72.340620
80.272503,72.340616
80.006930,72.280002
79.736225,72.249500
79.736213,72.249500
79.463787,72.249500
79.463774,72.249500
79.193069,72.280002
78.927496,72.340616
78.927481,72.340620
78.670330,72.430602
78.424895,72.548797
78.424882,72.548804
78.194221,72.693739
77.981233,72.863592
77.981225,72.863599
77.788599,73.056225
77.788592,73.056233
77.618739,73.269221
77.473804,73.499882
77.473797,73.499895
77.355602,73.745330
77.265620,74.002481
77.265616,74.002496
77.205002,74.268069
77.174500,74.538774
76.464250,74.538774
76.464250,69.949500
76.483204,69.854212
76.537180,69.773430
76.617962,69.719454
76.713250,69.700500
86.305623,69.700500
Z" /> 
</g>
<g style="fill:#FFFFFF; fill-opacity:1.000000; stroke:none;">
<circle cx="131.020000" cy="112.250000" r="0.175000" /> 
</g>
<g style="fill:#FFFFFF; fill-opacity:1.000000; stroke:none;">
<circle cx="131.020000" cy="114.790000" r="0.175000" /> 
</g>
<g style="fill:#FFFFFF; fill-opacity:1.000000; stroke:none;">
<circle cx="128.480000" cy="112.250000" r="0.175000" /> 
</g>
<g style="fill:#FFFFFF; fill-opacity:1.000000; stroke:none;">
<circle cx="128.480000" cy="114.790000" r="0.175000" /> 
</g>
<g style="fill:#FFFFFF; fill-opacity:1.000000; stroke:none;">
<circle cx="125.940000" cy="112.250000" r="0.175000" /> 
</g>
<g style="fill:#FFFFFF; fill-opacity:1.000000; stroke:none;">
<circle cx="125.940000" cy="114.790000" r="0.175000" /> 
</g>
<g style="fill:#FFFFFF; fill-opacity:1.000000; stroke:none;">
<circle cx="123.400000" cy="112.250000" r="0.175000" /> 
</g>
<g style="fill:#FFFFFF; fill-opacity:1.000000; stroke:none;">
<circle cx="123.400000" cy="114.790000" r="0.175000" /> 
</g>
<g style="fill:#FFFFFF; fill-opacity:1.000000; stroke:none;">
<circle cx="120.860000" cy="112.250000" r="0.175000" /> 
</g>
<g style="fill:#FFFFFF; fill-opacity:1.000000; stroke:none;">
<circle cx="120.860000" cy="114.790000" r="0.175000" /> 
</g>
<g style="fill:#FFFFFF; fill-opacity:1.000000; stroke:none;">
<circle cx="96.326230" cy="71.238591" r="0.175000" /> 
</g>
<g style="fill:#FFFFFF; fill-opacity:1.000000; stroke:none;">
<circle cx="96.326230" cy="73.778591" r="0.175000" /> 
</g>
<g style="fill:#FFFFFF; fill-opacity:1.000000; stroke:none;">
<circle cx="96.326230" cy="76.318591" r="0.175000" /> 
</g>
<g style="fill:#FFFFFF; fill-opacity:1.000000; stroke:none;">
<circle cx="110.937500" cy="95.150000" r="0.175000" /> 
</g>
<g style="fill:#FFFFFF; fill-opacity:1.000000; stroke:none;">
<circle cx="110.937500" cy="102.750000" r="0.175000" /> 
</g>
<g style="fill:#FFFFFF; fill-opacity:1.000000; stroke:none;">
<circle cx="110.800000" cy="113.800000" r="0.175000" /> 
</g>
<g style="fill:#FFFFFF; fill-opacity:1.000000; stroke:none;">
<circle cx="102.130000" cy="110.350000" r="0.175000" /> 
</g>
<g style="fill:#FFFFFF; fill-opacity:1.000000; stroke:none;">
<circle cx="99.590000" cy="110.350000" r="0.175000" /> 
</g>
<g style="fill:#FFFFFF; fill-opacity:1.000000; stroke:none;">
<circle cx="86.575000" cy="96.475000" r="0.175000" /> 
</g>
<g style="fill:#FFFFFF; fill-opacity:1.000000; stroke:none;">
<circle cx="86.575000" cy="93.935000" r="0.175000" /> 
</g>
<g style="fill:#FFFFFF; fill-opacity:1.000000; stroke:none;">
<circle cx="86.575000" cy="91.395000" r="0.175000" /> 
</g>
<g style="fill:#FFFFFF; fill-opacity:1.000000; stroke:none;">
<circle cx="86.575000" cy="88.855000" r="0.175000" /> 
</g>
<g style="fill:#FFFFFF; fill-opacity:1.000000; stroke:none;">
<circle cx="86.575000" cy="86.315000" r="0.175000" /> 
</g>
<g style="fill:#FFFFFF; fill-opacity:1.000000; stroke:none;">
<circle cx="119.780000" cy="81.500000" r="0.175000" /> 
</g>
<g style="fill:#FFFFFF; fill-opacity:1.000000; stroke:none;">
<circle cx="117.240000" cy="81.500000" r="0.175000" /> 
</g>
<g style="fill:#FFFFFF; fill-opacity:1.000000; stroke:none;">
<circle cx="114.700000" cy="81.500000" r="0.175000" /> 
</g>
<g style="fill:#FFFFFF; fill-opacity:1.000000; stroke:none;">
<circle cx="112.160000" cy="81.500000" r="0.175000" /> 
</g>
<g style="fill:#FFFFFF; fill-opacity:1.000000; stroke:none;">
<circle cx="109.620000" cy="81.500000" r="0.175000" /> 
</g>
<g style="fill:#FFFFFF; fill-opacity:1.000000; stroke:none;">
<circle cx="107.080000" cy="81.500000" r="0.175000" /> 
</g>
<g style="fill:#FFFFFF; fill-opacity:1.000000; stroke:none;">
<circle cx="104.540000" cy="81.500000" r="0.175000" /> 
</g>
<g style="fill:#FFFFFF; fill-opacity:1.000000; stroke:none;">
<circle cx="102.000000" cy="81.500000" r="0.175000" /> 
</g>
<g style="fill:#FFFFFF; fill-opacity:1.000000; stroke:none;">
<circle cx="99.460000" cy="81.500000" r="0.175000" /> 
</g>
<g style="fill:#FFFFFF; fill-opacity:1.000000; stroke:none;">
<circle cx="96.920000" cy="81.500000" r="0.175000" /> 
</g>
<g style="fill:#FFFFFF; fill-opacity:1.000000; stroke:none;">
<circle cx="94.380000" cy="81.500000" r="0.175000" /> 
</g>
<g style="fill:#FFFFFF; fill-opacity:1.000000; stroke:none;">
<circle cx="91.840000" cy="81.500000" r="0.175000" /> 
</g>
<g style="fill:#FFFFFF; fill-opacity:1.000000; stroke:none;">
<circle cx="89.300000" cy="81.500000" r="0.175000" /> 
</g>
<g style="fill:#FFFFFF; fill-opacity:1.000000; stroke:none;">
<circle cx="86.760000" cy="81.500000" r="0.175000" /> 
</g>
<g style="fill:#FFFFFF; fill-opacity:1.000000; stroke:none;">
<circle cx="84.220000" cy="81.500000" r="0.175000" /> 
</g>
<g style="fill:#FFFFFF; fill-opacity:1.000000; stroke:none;">
<circle cx="84.220000" cy="106.900000" r="0.175000" /> 
</g>
<g style="fill:#FFFFFF; fill-opacity:1.000000; stroke:none;">
<circle cx="86.760000" cy="106.900000" r="0.175000" /> 
</g>
<g style="fill:#FFFFFF; fill-opacity:1.000000; stroke:none;">
<circle cx="89.300000" cy="106.900000" r="0.175000" /> 
</g>
<g style="fill:#FFFFFF; fill-opacity:1.000000; stroke:none;">
<circle cx="91.840000" cy="106.900000" r="0.175000" /> 
</g>
<g style="fill:#FFFFFF; fill-opacity:1.000000; stroke:none;">
<circle cx="94.380000" cy="106.900000" r="0.175000" /> 
</g>
<g style="fill:#FFFFFF; fill-opacity:1.000000; stroke:none;">
<circle cx="96.920000" cy="106.900000" r="0.175000" /> 
</g>
<g style="fill:#FFFFFF; fill-opacity:1.000000; stroke:none;">
<circle cx="99.460000" cy="106.900000" r="0.175000" /> 
</g>
<g style="fill:#FFFFFF; fill-opacity:1.000000; stroke:none;">
<circle cx="102.000000" cy="106.900000" r="0.175000" /> 
</g>
<g style="fill:#FFFFFF; fill-opacity:1.000000; stroke:none;">
<circle cx="104.540000" cy="106.900000" r="0.175000" /> 
</g>
<g style="fill:#FFFFFF; fill-opacity:1.000000; stroke:none;">
<circle cx="107.080000" cy="106.900000" r="0.175000" /> 
</g>
<g style="fill:#FFFFFF; fill-opacity:1.000000; stroke:none;">
<circle cx="109.620000" cy="106.900000" r="0.175000" /> 
</g>
<g style="fill:#FFFFFF; fill-opacity:1.000000; stroke:none;">
<circle cx="112.160000" cy="106.900000" r="0.175000" /> 
</g>
<g style="fill:#FFFFFF; fill-opacity:1.000000; stroke:none;">
<circle cx="114.700000" cy="106.900000" r="0.175000" /> 
</g>
<g style="fill:#FFFFFF; fill-opacity:1.000000; stroke:none;">
<circle cx="117.240000" cy="106.900000" r="0.175000" /> 
</g>
<g style="fill:#FFFFFF; fill-opacity:1.000000; stroke:none;">
<circle cx="119.780000" cy="106.900000" r="0.175000" /> 
</g>
<g style="fill:#FFFFFF; fill-opacity:1.000000; stroke:none;">
<circle cx="131.035000" cy="79.700000" r="0.175000" /> 
</g>
<g style="fill:#FFFFFF; fill-opacity:1.000000; stroke:none;">
<circle cx="133.575000" cy="79.700000" r="0.175000" /> 
</g>
<g style="fill:#FFFFFF; fill-opacity:1.000000; stroke:none;">
<circle cx="81.980000" cy="114.795000" r="0.175000" /> 
</g>
<g style="fill:#FFFFFF; fill-opacity:1.000000; stroke:none;">
<circle cx="81.980000" cy="112.255000" r="0.175000" /> 
</g>
<g style="fill:#FFFFFF; fill-opacity:1.000000; stroke:none;">
<circle cx="84.520000" cy="114.795000" r="0.175000" /> 
</g>
<g style="fill:#FFFFFF; fill-opacity:1.000000; stroke:none;">
<circle cx="84.520000" cy="112.255000" r="0.175000" /> 
</g>
<g style="fill:#FFFFFF; fill-opacity:1.000000; stroke:none;">
<circle cx="87.060000" cy="114.795000" r="0.175000" /> 
</g>
<g style="fill:#FFFFFF; fill-opacity:1.000000; stroke:none;">
<circle cx="87.060000" cy="112.255000" r="0.175000" /> 
</g>
<g style="fill:#FFFFFF; fill-opacity:1.000000; stroke:none;">
<circle cx="89.600000" cy="114.795000" r="0.175000" /> 
</g>
<g style="fill:#FFFFFF; fill-opacity:1.000000; stroke:none;">
<circle cx="89.600000" cy="112.255000" r="0.175000" /> 
</g>
<g style="fill:#FFFFFF; fill-opacity:1.000000; stroke:none;">
<circle cx="92.140000" cy="114.795000" r="0.175000" /> 
</g>
<g style="fill:#FFFFFF; fill-opacity:1.000000; stroke:none;">
<circle cx="92.140000" cy="112.255000" r="0.175000" /> 
</g>
<g style="fill:#FFFFFF; fill-opacity:1.000000; stroke:none;">
<circle cx="117.100000" cy="94.040000" r="0.175000" /> 
</g>
<g style="fill:#FFFFFF; fill-opacity:1.000000; stroke:none;">
<circle cx="117.100000" cy="91.500000" r="0.175000" /> 
</g>
<g style="fill:#FFFFFF; fill-opacity:1.000000; stroke:none;">
<circle cx="110.755000" cy="71.238591" r="0.175000" /> 
</g>
<g style="fill:#FFFFFF; fill-opacity:1.000000; stroke:none;">
<circle cx="110.755000" cy="73.778591" r="0.175000" /> 
</g>
<g style="fill:#FFFFFF; fill-opacity:1.000000; stroke:none;">
<circle cx="110.755000" cy="76.318591" r="0.175000" /> 
</g>
<g style="fill:#FFFFFF; fill-opacity:1.000000; stroke:none;">
<circle cx="103.500000" cy="71.238591" r="0.175000" /> 
</g>
<g style="fill:#FFFFFF; fill-opacity:1.000000; stroke:none;">
<circle cx="103.500000" cy="73.778591" r="0.175000" /> 
</g>
<g style="fill:#FFFFFF; fill-opacity:1.000000; stroke:none;">
<circle cx="103.500000" cy="76.318591" r="0.175000" /> 
</g>
<g style="fill:#FFFFFF; fill-opacity:1.000000; stroke:none;">
<circle cx="124.875000" cy="71.238591" r="0.175000" /> 
</g>
<g style="fill:#FFFFFF; fill-opacity:1.000000; stroke:none;">
<circle cx="124.875000" cy="73.778591" r="0.175000" /> 
</g>
<g style="fill:#FFFFFF; fill-opacity:1.000000; stroke:none;">
<circle cx="124.875000" cy="76.318591" r="0.175000" /> 
</g>
<g style="fill:#FFFFFF; fill-opacity:1.000000; stroke:none;">
<circle cx="79.600000" cy="74.675000" r="0.175000" /> 
</g>
<g style="fill:#FFFFFF; fill-opacity:1.000000; stroke:none;">
<circle cx="125.550000" cy="83.550000" r="0.175000" /> 
</g>
<g style="fill:#FFFFFF; fill-opacity:1.000000; stroke:none;">
<circle cx="117.875000" cy="71.238591" r="0.175000" /> 
</g>
<g style="fill:#FFFFFF; fill-opacity:1.000000; stroke:none;">
<circle cx="117.875000" cy="73.778591" r="0.175000" /> 
</g>
<g style="fill:#FFFFFF; fill-opacity:1.000000; stroke:none;">
<circle cx="117.875000" cy="76.318591" r="0.175000" /> 
<path style="fill:none; 
stroke:#000000; stroke-width:0.100000; stroke-opacity:1; 
stroke-linecap:round; stroke-linejoin:round;fill:none"
d="M 75.963750,69.200000
135.963750,69.200000
135.963750,119.200000
75.963750,119.200000
Z" /> 
</g>
<g style="fill:#000000; fill-opacity:1.000000; stroke:none;">
<circle cx="131.020000" cy="112.250000" r="0.175000" /> 
</g>
<g style="fill:#000000; fill-opacity:1.000000; stroke:none;">
<circle cx="131.020000" cy="114.790000" r="0.175000" /> 
</g>
<g style="fill:#000000; fill-opacity:1.000000; stroke:none;">
<circle cx="128.480000" cy="112.250000" r="0.175000" /> 
</g>
<g style="fill:#000000; fill-opacity:1.000000; stroke:none;">
<circle cx="128.480000" cy="114.790000" r="0.175000" /> 
</g>
<g style="fill:#000000; fill-opacity:1.000000; stroke:none;">
<circle cx="125.940000" cy="112.250000" r="0.175000" /> 
</g>
<g style="fill:#000000; fill-opacity:1.000000; stroke:none;">
<circle cx="125.940000" cy="114.790000" r="0.175000" /> 
</g>
<g style="fill:#000000; fill-opacity:1.000000; stroke:none;">
<circle cx="123.400000" cy="112.250000" r="0.175000" /> 
</g>
<g style="fill:#000000; fill-opacity:1.000000; stroke:none;">
<circle cx="123.400000" cy="114.790000" r="0.175000" /> 
</g>
<g style="fill:#000000; fill-opacity:1.000000; stroke:none;">
<circle cx="120.860000" cy="112.250000" r="0.175000" /> 
</g>
<g style="fill:#000000; fill-opacity:1.000000; stroke:none;">
<circle cx="120.860000" cy="114.790000" r="0.175000" /> 
</g>
<g style="fill:#000000; fill-opacity:1.000000; stroke:none;">
<circle cx="96.326230" cy="71.238591" r="0.175000" /> 
</g>
<g style="fill:#000000; fill-opacity:1.000000; stroke:none;">
<circle cx="96.326230" cy="73.778591" r="0.175000" /> 
</g>
<g style="fill:#000000; fill-opacity:1.000000; stroke:none;">
<circle cx="96.326230" cy="76.318591" r="0.175000" /> 
</g>
<g style="fill:#000000; fill-opacity:1.000000; stroke:none;">
<circle cx="110.937500" cy="95.150000" r="0.175000" /> 
</g>
<g style="fill:#000000; fill-opacity:1.000000; stroke:none;">
<circle cx="110.937500" cy="102.750000" r="0.175000" /> 
</g>
<g style="fill:#000000; fill-opacity:1.000000; stroke:none;">
<circle cx="110.800000" cy="113.800000" r="0.175000" /> 
</g>
<g style="fill:#000000; fill-opacity:1.000000; stroke:none;">
<circle cx="102.130000" cy="110.350000" r="0.175000" /> 
</g>
<g style="fill:#000000; fill-opacity:1.000000; stroke:none;">
<circle cx="99.590000" cy="110.350000" r="0.175000" /> 
</g>
<g style="fill:#000000; fill-opacity:1.000000; stroke:none;">
<circle cx="86.575000" cy="96.475000" r="0.175000" /> 
</g>
<g style="fill:#000000; fill-opacity:1.000000; stroke:none;">
<circle cx="86.575000" cy="93.935000" r="0.175000" /> 
</g>
<g style="fill:#000000; fill-opacity:1.000000; stroke:none;">
<circle cx="86.575000" cy="91.395000" r="0.175000" /> 
</g>
<g style="fill:#000000; fill-opacity:1.000000; stroke:none;">
<circle cx="86.575000" cy="88.855000" r="0.175000" /> 
</g>
<g style="fill:#000000; fill-opacity:1.000000; stroke:none;">
<circle cx="86.575000" cy="86.315000" r="0.175000" /> 
</g>
<g style="fill:#000000; fill-opacity:1.000000; stroke:none;">
<circle cx="119.780000" cy="81.500000" r="0.175000" /> 
</g>
<g style="fill:#000000; fill-opacity:1.000000; stroke:none;">
<circle cx="117.240000" cy="81.500000" r="0.175000" /> 
</g>
<g style="fill:#000000; fill-opacity:1.000000; stroke:none;">
<circle cx="114.700000" cy="81.500000" r="0.175000" /> 
</g>
<g style="fill:#000000; fill-opacity:1.000000; stroke:none;">
<circle cx="112.160000" cy="81.500000" r="0.175000" /> 
</g>
<g style="fill:#000000; fill-opacity:1.000000; stroke:none;">
<circle cx="109.620000" cy="81.500000" r="0.175000" /> 
</g>
<g style="fill:#000000; fill-opacity:1.000000; stroke:none;">
<circle cx="107.080000" cy="81.500000" r="0.175000" /> 
</g>
<g style="fill:#000000; fill-opacity:1.000000; stroke:none;">
<circle cx="104.540000" cy="81.500000" r="0.175000" /> 
</g>
<g style="fill:#000000; fill-opacity:1.000000; stroke:none;">
<circle cx="102.000000" cy="81.500000" r="0.175000" /> 
</g>
<g style="fill:#000000; fill-opacity:1.000000; stroke:none;">
<circle cx="99.460000" cy="81.500000" r="0.175000" /> 
</g>
<g style="fill:#000000; fill-opacity:1.000000; stroke:none;">
<circle cx="96.920000" cy="81.500000" r="0.175000" /> 
</g>
<g style="fill:#000000; fill-opacity:1.000000; stroke:none;">
<circle cx="94.380000" cy="81.500000" r="0.175000" /> 
</g>
<g style="fill:#000000; fill-opacity:1.000000; stroke:none;">
<circle cx="91.840000" cy="81.500000" r="0.175000" /> 
</g>
<g style="fill:#000000; fill-opacity:1.000000; stroke:none;">
<circle cx="89.300000" cy="81.500000" r="0.175000" /> 
</g>
<g style="fill:#000000; fill-opacity:1.000000; stroke:none;">
<circle cx="86.760000" cy="81.500000" r="0.175000" /> 
</g>
<g style="fill:#000000; fill-opacity:1.000000; stroke:none;">
<circle cx="84.220000" cy="81.500000" r="0.175000" /> 
</g>
<g style="fill:#000000; fill-opacity:1.000000; stroke:none;">
<circle cx="84.220000" cy="106.900000" r="0.175000" /> 
</g>
<g style="fill:#000000; fill-opacity:1.000000; stroke:none;">
<circle cx="86.760000" cy="106.900000" r="0.175000" /> 
</g>
<g style="fill:#000000; fill-opacity:1.000000; stroke:none;">
<circle cx="89.300000" cy="106.900000" r="0.175000" /> 
</g>
<g style="fill:#000000; fill-opacity:1.000000; stroke:none;">
<circle cx="91.840000" cy="106.900000" r="0.175000" /> 
</g>
<g style="fill:#000000; fill-opacity:1.000000; stroke:none;">
<circle cx="94.380000" cy="106.900000" r="0.175000" /> 
</g>
<g style="fill:#000000; fill-opacity:1.000000; stroke:none;">
<circle cx="96.920000" cy="106.900000" r="0.175000" /> 
</g>
<g style="fill:#000000; fill-opacity:1.000000; stroke:none;">
<circle cx="99.460000" cy="106.900000" r="0.175000" /> 
</g>
<g style="fill:#000000; fill-opacity:1.000000; stroke:none;">
<circle cx="102.000000" cy="106.900000" r="0.175000" /> 
</g>
<g style="fill:#000000; fill-opacity:1.000000; stroke:none;">
<circle cx="104.540000" cy="106.900000" r="0.175000" /> 
</g>
<g style="fill:#000000; fill-opacity:1.000000; stroke:none;">
<circle cx="107.080000" cy="106.900000" r="0.175000" /> 
</g>
<g style="fill:#000000; fill-opacity:1.000000; stroke:none;">
<circle cx="109.620000" cy="106.900000" r="0.175000" /> 
</g>
<g style="fill:#000000; fill-opacity:1.000000; stroke:none;">
<circle cx="112.160000" cy="106.900000" r="0.175000" /> 
</g>
<g style="fill:#000000; fill-opacity:1.000000; stroke:none;">
<circle cx="114.700000" cy="106.900000" r="0.175000" /> 
</g>
<g style="fill:#000000; fill-opacity:1.000000; stroke:none;">
<circle cx="117.240000" cy="106.900000" r="0.175000" /> 
</g>
<g style="fill:#000000; fill-opacity:1.000000; stroke:none;">
<circle cx="119.780000" cy="106.900000" r="0.175000" /> 
</g>
<g style="fill:#000000; fill-opacity:1.000000; stroke:none;">
<circle cx="131.035000" cy="79.700000" r="0.175000" /> 
</g>
<g style="fill:#000000; fill-opacity:1.000000; stroke:none;">
<circle cx="133.575000" cy="79.700000" r="0.175000" /> 
</g>
<g style="fill:#000000; fill-opacity:1.000000; stroke:none;">
<circle cx="81.980000" cy="114.795000" r="0.175000" /> 
</g>
<g style="fill:#000000; fill-opacity:1.000000; stroke:none;">
<circle cx="81.980000" cy="112.255000" r="0.175000" /> 
</g>
<g style="fill:#000000; fill-opacity:1.000000; stroke:none;">
<circle cx="84.520000" cy="114.795000" r="0.175000" /> 
</g>
<g style="fill:#000000; fill-opacity:1.000000; stroke:none;">
<circle cx="84.520000" cy="112.255000" r="0.175000" /> 
</g>
<g style="fill:#000000; fill-opacity:1.000000; stroke:none;">
<circle cx="87.060000" cy="114.795000" r="0.175000" /> 
</g>
<g style="fill:#000000; fill-opacity:1.000000; stroke:none;">
<circle cx="87.060000" cy="112.255000" r="0.175000" /> 
</g>
<g style="fill:#000000; fill-opacity:1.000000; stroke:none;">
<circle cx="89.600000" cy="114.795000" r="0.175000" /> 
</g>
<g style="fill:#000000; fill-opacity:1.000000; stroke:none;">
<circle cx="89.600000" cy="112.255000" r="0.175000" /> 
</g>
<g style="fill:#000000; fill-opacity:1.000000; stroke:none;">
<circle cx="92.140000" cy="114.795000" r="0.175000" /> 
</g>
<g style="fill:#000000; fill-opacity:1.000000; stroke:none;">
<circle cx="92.140000" cy="112.255000" r="0.175000" /> 
</g>
<g style="fill:#000000; fill-opacity:1.000000; stroke:none;">
<circle cx="117.100000" cy="94.040000" r="0.175000" /> 
</g>
<g style="fill:#000000; fill-opacity:1.000000; stroke:none;">
<circle cx="117.100000" cy="91.500000" r="0.175000" /> 
</g>
<g style="fill:#000000; fill-opacity:1.000000; stroke:none;">
<circle cx="110.755000" cy="71.238591" r="0.175000" /> 
</g>
<g style="fill:#000000; fill-opacity:1.000000; stroke:none;">
<circle cx="110.755000" cy="73.778591" r="0.175000" /> 
</g>
<g style="fill:#000000; fill-opacity:1.000000; stroke:none;">
<circle cx="110.755000" cy="76.318591" r="0.175000" /> 
</g>
<g style="fill:#000000; fill-opacity:1.000000; stroke:none;">
<circle cx="103.500000" cy="71.238591" r="0.175000" /> 
</g>
<g style="fill:#000000; fill-opacity:1.000000; stroke:none;">
<circle cx="103.500000" cy="73.778591" r="0.175000" /> 
</g>
<g style="fill:#000000; fill-opacity:1.000000; stroke:none;">
<circle cx="103.500000" cy="76.318591" r="0.175000" /> 
</g>
<g style="fill:#000000; fill-opacity:1.000000; stroke:none;">
<circle cx="124.875000" cy="71.238591" r="0.175000" /> 
</g>
<g style="fill:#000000; fill-opacity:1.000000; stroke:none;">
<circle cx="124.875000" cy="73.778591" r="0.175000" /> 
</g>
<g style="fill:#000000; fill-opacity:1.000000; stroke:none;">
<circle cx="124.875000" cy="76.318591" r="0.175000" /> 
</g>
<g style="fill:#000000; fill-opacity:1.000000; stroke:none;">
<circle cx="79.600000" cy="74.675000" r="0.175000" /> 
</g>
<g style="fill:#000000; fill-opacity:1.000000; stroke:none;">
<circle cx="125.550000" cy="83.550000" r="0.175000" /> 
</g>
<g style="fill:#000000; fill-opacity:1.000000; stroke:none;">
<circle cx="117.875000" cy="71.238591" r="0.175000" /> 
</g>
<g style="fill:#000000; fill-opacity:1.000000; stroke:none;">
<circle cx="117.875000" cy="73.778591" r="0.175000" /> 
</g>
<g style="fill:#000000; fill-opacity:1.000000; stroke:none;">
<circle cx="117.875000" cy="76.318591" r="0.175000" /> 
</g>
<g style="fill:#FFFFFF; fill-opacity:1.000000; stroke:none;">
<circle cx="131.020000" cy="112.250000" r="0.175000" /> 
</g>
<g style="fill:#FFFFFF; fill-opacity:1.000000; stroke:none;">
<circle cx="131.020000" cy="114.790000" r="0.175000" /> 
</g>
<g style="fill:#FFFFFF; fill-opacity:1.000000; stroke:none;">
<circle cx="128.480000" cy="112.250000" r="0.175000" /> 
</g>
<g style="fill:#FFFFFF; fill-opacity:1.000000; stroke:none;">
<circle cx="128.480000" cy="114.790000" r="0.175000" /> 
</g>
<g style="fill:#FFFFFF; fill-opacity:1.000000; stroke:none;">
<circle cx="125.940000" cy="112.250000" r="0.175000" /> 
</g>
<g style="fill:#FFFFFF; fill-opacity:1.000000; stroke:none;">
<circle cx="125.940000" cy="114.790000" r="0.175000" /> 
</g>
<g style="fill:#FFFFFF; fill-opacity:1.000000; stroke:none;">
<circle cx="123.400000" cy="112.250000" r="0.175000" /> 
</g>
<g style="fill:#FFFFFF; fill-opacity:1.000000; stroke:none;">
<circle cx="123.400000" cy="114.790000" r="0.175000" /> 
</g>
<g style="fill:#FFFFFF; fill-opacity:1.000000; stroke:none;">
<circle cx="120.860000" cy="112.250000" r="0.175000" /> 
</g>
<g style="fill:#FFFFFF; fill-opacity:1.000000; stroke:none;">
<circle cx="120.860000" cy="114.790000" r="0.175000" /> 
</g>
<g style="fill:#FFFFFF; fill-opacity:1.000000; stroke:none;">
<circle cx="96.326230" cy="71.238591" r="0.175000" /> 
</g>
<g style="fill:#FFFFFF; fill-opacity:1.000000; stroke:none;">
<circle cx="96.326230" cy="73.778591" r="0.175000" /> 
</g>
<g style="fill:#FFFFFF; fill-opacity:1.000000; stroke:none;">
<circle cx="96.326230" cy="76.318591" r="0.175000" /> 
</g>
<g style="fill:#FFFFFF; fill-opacity:1.000000; stroke:none;">
<circle cx="110.937500" cy="95.150000" r="0.175000" /> 
</g>
<g style="fill:#FFFFFF; fill-opacity:1.000000; stroke:none;">
<circle cx="110.937500" cy="102.750000" r="0.175000" /> 
</g>
<g style="fill:#FFFFFF; fill-opacity:1.000000; stroke:none;">
<circle cx="110.800000" cy="113.800000" r="0.175000" /> 
</g>
<g style="fill:#FFFFFF; fill-opacity:1.000000; stroke:none;">
<circle cx="102.130000" cy="110.350000" r="0.175000" /> 
</g>
<g style="fill:#FFFFFF; fill-opacity:1.000000; stroke:none;">
<circle cx="99.590000" cy="110.350000" r="0.175000" /> 
</g>
<g style="fill:#FFFFFF; fill-opacity:1.000000; stroke:none;">
<circle cx="86.575000" cy="96.475000" r="0.175000" /> 
</g>
<g style="fill:#FFFFFF; fill-opacity:1.000000; stroke:none;">
<circle cx="86.575000" cy="93.935000" r="0.175000" /> 
</g>
<g style="fill:#FFFFFF; fill-opacity:1.000000; stroke:none;">
<circle cx="86.575000" cy="91.395000" r="0.175000" /> 
</g>
<g style="fill:#FFFFFF; fill-opacity:1.000000; stroke:none;">
<circle cx="86.575000" cy="88.855000" r="0.175000" /> 
</g>
<g style="fill:#FFFFFF; fill-opacity:1.000000; stroke:none;">
<circle cx="86.575000" cy="86.315000" r="0.175000" /> 
</g>
<g style="fill:#FFFFFF; fill-opacity:1.000000; stroke:none;">
<circle cx="119.780000" cy="81.500000" r="0.175000" /> 
</g>
<g style="fill:#FFFFFF; fill-opacity:1.000000; stroke:none;">
<circle cx="117.240000" cy="81.500000" r="0.175000" /> 
</g>
<g style="fill:#FFFFFF; fill-opacity:1.000000; stroke:none;">
<circle cx="114.700000" cy="81.500000" r="0.175000" /> 
</g>
<g style="fill:#FFFFFF; fill-opacity:1.000000; stroke:none;">
<circle cx="112.160000" cy="81.500000" r="0.175000" /> 
</g>
<g style="fill:#FFFFFF; fill-opacity:1.000000; stroke:none;">
<circle cx="109.620000" cy="81.500000" r="0.175000" /> 
</g>
<g style="fill:#FFFFFF; fill-opacity:1.000000; stroke:none;">
<circle cx="107.080000" cy="81.500000" r="0.175000" /> 
</g>
<g style="fill:#FFFFFF; fill-opacity:1.000000; stroke:none;">
<circle cx="104.540000" cy="81.500000" r="0.175000" /> 
</g>
<g style="fill:#FFFFFF; fill-opacity:1.000000; stroke:none;">
<circle cx="102.000000" cy="81.500000" r="0.175000" /> 
</g>
<g style="fill:#FFFFFF; fill-opacity:1.000000; stroke:none;">
<circle cx="99.460000" cy="81.500000" r="0.175000" /> 
</g>
<g style="fill:#FFFFFF; fill-opacity:1.000000; stroke:none;">
<circle cx="96.920000" cy="81.500000" r="0.175000" /> 
</g>
<g style="fill:#FFFFFF; fill-opacity:1.000000; stroke:none;">
<circle cx="94.380000" cy="81.500000" r="0.175000" /> 
</g>
<g style="fill:#FFFFFF; fill-opacity:1.000000; stroke:none;">
<circle cx="91.840000" cy="81.500000" r="0.175000" /> 
</g>
<g style="fill:#FFFFFF; fill-opacity:1.000000; stroke:none;">
<circle cx="89.300000" cy="81.500000" r="0.175000" /> 
</g>
<g style="fill:#FFFFFF; fill-opacity:1.000000; stroke:none;">
<circle cx="86.760000" cy="81.500000" r="0.175000" /> 
</g>
<g style="fill:#FFFFFF; fill-opacity:1.000000; stroke:none;">
<circle cx="84.220000" cy="81.500000" r="0.175000" /> 
</g>
<g style="fill:#FFFFFF; fill-opacity:1.000000; stroke:none;">
<circle cx="84.220000" cy="106.900000" r="0.175000" /> 
</g>
<g style="fill:#FFFFFF; fill-opacity:1.000000; stroke:none;">
<circle cx="86.760000" cy="106.900000" r="0.175000" /> 
</g>
<g style="fill:#FFFFFF; fill-opacity:1.000000; stroke:none;">
<circle cx="89.300000" cy="106.900000" r="0.175000" /> 
</g>
<g style="fill:#FFFFFF; fill-opacity:1.000000; stroke:none;">
<circle cx="91.840000" cy="106.900000" r="0.175000" /> 
</g>
<g style="fill:#FFFFFF; fill-opacity:1.000000; stroke:none;">
<circle cx="94.380000" cy="106.900000" r="0.175000" /> 
</g>
<g style="fill:#FFFFFF; fill-opacity:1.000000; stroke:none;">
<circle cx="96.920000" cy="106.900000" r="0.175000" /> 
</g>
<g style="fill:#FFFFFF; fill-opacity:1.000000; stroke:none;">
<circle cx="99.460000" cy="106.900000" r="0.175000" /> 
</g>
<g style="fill:#FFFFFF; fill-opacity:1.000000; stroke:none;">
<circle cx="102.000000" cy="106.900000" r="0.175000" /> 
</g>
<g style="fill:#FFFFFF; fill-opacity:1.000000; stroke:none;">
<circle cx="104.540000" cy="106.900000" r="0.175000" /> 
</g>
<g style="fill:#FFFFFF; fill-opacity:1.000000; stroke:none;">
<circle cx="107.080000" cy="106.900000" r="0.175000" /> 
</g>
<g style="fill:#FFFFFF; fill-opacity:1.000000; stroke:none;">
<circle cx="109.620000" cy="106.900000" r="0.175000" /> 
</g>
<g style="fill:#FFFFFF; fill-opacity:1.000000; stroke:none;">
<circle cx="112.160000" cy="106.900000" r="0.175000" /> 
</g>
<g style="fill:#FFFFFF; fill-opacity:1.000000; stroke:none;">
<circle cx="114.700000" cy="106.900000" r="0.175000" /> 
</g>
<g style="fill:#FFFFFF; fill-opacity:1.000000; stroke:none;">
<circle cx="117.240000" cy="106.900000" r="0.175000" /> 
</g>
<g style="fill:#FFFFFF; fill-opacity:1.000000; stroke:none;">
<circle cx="119.780000" cy="106.900000" r="0.175000" /> 
</g>
<g style="fill:#FFFFFF; fill-opacity:1.000000; stroke:none;">
<circle cx="131.035000" cy="79.700000" r="0.175000" /> 
</g>
<g style="fill:#FFFFFF; fill-opacity:1.000000; stroke:none;">
<circle cx="133.575000" cy="79.700000" r="0.175000" /> 
</g>
<g style="fill:#FFFFFF; fill-opacity:1.000000; stroke:none;">
<circle cx="81.980000" cy="114.795000" r="0.175000" /> 
</g>
<g style="fill:#FFFFFF; fill-opacity:1.000000; stroke:none;">
<circle cx="81.980000" cy="112.255000" r="0.175000" /> 
</g>
<g style="fill:#FFFFFF; fill-opacity:1.000000; stroke:none;">
<circle cx="84.520000" cy="114.795000" r="0.175000" /> 
</g>
<g style="fill:#FFFFFF; fill-opacity:1.000000; stroke:none;">
<circle cx="84.520000" cy="112.255000" r="0.175000" /> 
</g>
<g style="fill:#FFFFFF; fill-opacity:1.000000; stroke:none;">
<circle cx="87.060000" cy="114.795000" r="0.175000" /> 
</g>
<g style="fill:#FFFFFF; fill-opacity:1.000000; stroke:none;">
<circle cx="87.060000" cy="112.255000" r="0.175000" /> 
</g>
<g style="fill:#FFFFFF; fill-opacity:1.000000; stroke:none;">
<circle cx="89.600000" cy="114.795000" r="0.175000" /> 
</g>
<g style="fill:#FFFFFF; fill-opacity:1.000000; stroke:none;">
<circle cx="89.600000" cy="112.255000" r="0.175000" /> 
</g>
<g style="fill:#FFFFFF; fill-opacity:1.000000; stroke:none;">
<circle cx="92.140000" cy="114.795000" r="0.175000" /> 
</g>
<g style="fill:#FFFFFF; fill-opacity:1.000000; stroke:none;">
<circle cx="92.140000" cy="112.255000" r="0.175000" /> 
</g>
<g style="fill:#FFFFFF; fill-opacity:1.000000; stroke:none;">
<circle cx="117.100000" cy="94.040000" r="0.175000" /> 
</g>
<g style="fill:#FFFFFF; fill-opacity:1.000000; stroke:none;">
<circle cx="117.100000" cy="91.500000" r="0.175000" /> 
</g>
<g style="fill:#FFFFFF; fill-opacity:1.000000; stroke:none;">
<circle cx="110.755000" cy="71.238591" r="0.175000" /> 
</g>
<g style="fill:#FFFFFF; fill-opacity:1.000000; stroke:none;">
<circle cx="110.755000" cy="73.778591" r="0.175000" /> 
</g>
<g style="fill:#FFFFFF; fill-opacity:1.000000; stroke:none;">
<circle cx="110.755000" cy="76.318591" r="0.175000" /> 
</g>
<g style="fill:#FFFFFF; fill-opacity:1.000000; stroke:none;">
<circle cx="103.500000" cy="71.238591" r="0.175000" /> 
</g>
<g style="fill:#FFFFFF; fill-opacity:1.000000; stroke:none;">
<circle cx="103.500000" cy="73.778591" r="0.175000" /> 
</g>
<g style="fill:#FFFFFF; fill-opacity:1.000000; stroke:none;">
<circle cx="103.500000" cy="76.318591" r="0.175000" /> 
</g>
<g style="fill:#FFFFFF; fill-opacity:1.000000; stroke:none;">
<circle cx="124.875000" cy="71.238591" r="0.175000" /> 
</g>
<g style="fill:#FFFFFF; fill-opacity:1.000000; stroke:none;">
<circle cx="124.875000" cy="73.778591" r="0.175000" /> 
</g>
<g style="fill:#FFFFFF; fill-opacity:1.000000; stroke:none;">
<circle cx="124.875000" cy="76.318591" r="0.175000" /> 
</g>
<g style="fill:#FFFFFF; fill-opacity:1.000000; stroke:none;">
<circle cx="79.600000" cy="74.675000" r="0.175000" /> 
</g>
<g style="fill:#FFFFFF; fill-opacity:1.000000; stroke:none;">
<circle cx="125.550000" cy="83.550000" r="0.175000" /> 
</g>
<g style="fill:#FFFFFF; fill-opacity:1.000000; stroke:none;">
<circle cx="117.875000" cy="71.238591" r="0.175000" /> 
</g>
<g style="fill:#FFFFFF; fill-opacity:1.000000; stroke:none;">
<circle cx="117.875000" cy="73.778591" r="0.175000" /> 
</g>
<g style="fill:#FFFFFF; fill-opacity:1.000000; stroke:none;">
<circle cx="117.875000" cy="76.318591" r="0.175000" /> 
</g> 
</svg>
